<svg xmlns="http://www.w3.org/2000/svg" xmlns:xlink="http://www.w3.org/1999/xlink" width="300" zoomAndPan="magnify"
     viewBox="0 0 224.87999 225" height="300" preserveAspectRatio="xMidYMid meet" version="1.0">
    <path fill="#000000"
          d="M 31.53125 163.203125 C 32.582031 164.90625 32.074219 167.148438 30.339844 168.214844 C 28.605469 169.28125 26.371094 168.726562 25.324219 167.023438 C 24.273438 165.320312 24.808594 163.0625 26.515625 162.011719 C 28.234375 160.953125 30.480469 161.5 31.53125 163.203125 Z M 30.917969 163.582031 C 30.058594 162.183594 28.246094 161.789062 26.890625 162.625 C 25.507812 163.476562 25.074219 165.25 25.933594 166.644531 C 26.769531 168 28.5625 168.464844 29.960938 167.601562 C 31.359375 166.742188 31.753906 164.933594 30.917969 163.582031 Z M 30.917969 163.582031 "
          fill-opacity="1" fill-rule="nonzero"/>
    <path fill="#000000"
          d="M 23.816406 140.535156 L 12.683594 147.195312 L 11.738281 143.550781 L 18.730469 139.992188 L 18.707031 139.898438 L 10.785156 139.859375 L 10.042969 136.988281 L 16.976562 133.117188 L 16.953125 133.023438 L 9.089844 133.296875 L 8.148438 129.652344 L 21.117188 130.09375 L 21.925781 133.222656 L 15.722656 137.003906 L 15.746094 137.097656 L 23.007812 137.40625 Z M 23.816406 140.535156 "
          fill-opacity="1" fill-rule="nonzero"/>
    <path fill="#000000"
          d="M 20.222656 121.644531 C 20.328125 122.632812 20.226562 123.507812 19.921875 124.261719 C 19.613281 125.015625 19.121094 125.621094 18.449219 126.082031 C 17.769531 126.539062 16.929688 126.816406 15.929688 126.921875 C 14.972656 127.019531 14.113281 126.914062 13.355469 126.601562 C 12.597656 126.289062 11.984375 125.800781 11.511719 125.136719 C 11.039062 124.476562 10.753906 123.664062 10.65625 122.707031 C 10.582031 122.003906 10.625 121.359375 10.785156 120.769531 C 10.941406 120.179688 11.207031 119.660156 11.582031 119.214844 C 11.953125 118.769531 12.417969 118.410156 12.984375 118.132812 C 13.550781 117.851562 14.203125 117.675781 14.941406 117.597656 L 15.714844 117.519531 L 16.574219 125.804688 L 14.734375 125.996094 L 14.195312 120.777344 C 13.929688 120.808594 13.703125 120.902344 13.515625 121.054688 C 13.324219 121.207031 13.179688 121.398438 13.089844 121.628906 C 12.996094 121.859375 12.964844 122.113281 12.992188 122.390625 C 13.019531 122.660156 13.105469 122.902344 13.246094 123.117188 C 13.382812 123.328125 13.558594 123.496094 13.773438 123.609375 C 13.988281 123.722656 14.230469 123.769531 14.503906 123.75 L 16.484375 123.542969 C 16.785156 123.511719 17.042969 123.421875 17.265625 123.273438 C 17.484375 123.125 17.648438 122.925781 17.757812 122.679688 C 17.867188 122.433594 17.90625 122.144531 17.871094 121.8125 C 17.847656 121.582031 17.792969 121.378906 17.710938 121.195312 C 17.625 121.007812 17.515625 120.851562 17.378906 120.730469 C 17.242188 120.605469 17.082031 120.519531 16.902344 120.472656 L 16.585938 117.429688 C 17.242188 117.46875 17.828125 117.65625 18.34375 118 C 18.855469 118.339844 19.277344 118.820312 19.605469 119.4375 C 19.929688 120.050781 20.136719 120.785156 20.222656 121.644531 Z M 20.222656 121.644531 "
          fill-opacity="1" fill-rule="nonzero"/>
    <path fill="#000000"
          d="M 19.746094 108.378906 C 19.714844 109.042969 19.515625 109.648438 19.140625 110.1875 C 18.765625 110.726562 18.21875 111.144531 17.492188 111.449219 C 16.769531 111.746094 15.867188 111.871094 14.792969 111.820312 C 13.667969 111.769531 12.761719 111.554688 12.070312 111.171875 C 11.382812 110.789062 10.890625 110.3125 10.585938 109.742188 C 10.285156 109.167969 10.148438 108.574219 10.175781 107.960938 C 10.199219 107.5 10.296875 107.097656 10.476562 106.757812 C 10.648438 106.417969 10.875 106.136719 11.15625 105.914062 C 11.429688 105.691406 11.726562 105.527344 12.046875 105.421875 L 12.050781 105.371094 L 7.3125 105.152344 L 7.46875 101.804688 L 19.90625 102.382812 L 19.75 105.707031 L 18.21875 105.636719 L 18.21875 105.707031 C 18.527344 105.851562 18.800781 106.050781 19.039062 106.304688 C 19.277344 106.554688 19.460938 106.855469 19.589844 107.207031 C 19.714844 107.550781 19.769531 107.945312 19.746094 108.378906 Z M 17.230469 107.023438 C 17.246094 106.714844 17.167969 106.449219 17 106.222656 C 16.828125 105.992188 16.582031 105.808594 16.257812 105.679688 C 15.933594 105.542969 15.542969 105.460938 15.089844 105.441406 C 14.628906 105.417969 14.230469 105.460938 13.898438 105.566406 C 13.558594 105.667969 13.296875 105.828125 13.113281 106.042969 C 12.925781 106.253906 12.824219 106.511719 12.808594 106.820312 C 12.796875 107.125 12.871094 107.390625 13.039062 107.621094 C 13.203125 107.839844 13.449219 108.019531 13.777344 108.152344 C 14.097656 108.28125 14.492188 108.355469 14.953125 108.375 C 15.414062 108.398438 15.8125 108.359375 16.152344 108.261719 C 16.484375 108.160156 16.746094 108.007812 16.933594 107.800781 C 17.117188 107.589844 17.214844 107.332031 17.230469 107.023438 Z M 17.230469 107.023438 "
          fill-opacity="1" fill-rule="nonzero"/>
    <path fill="#000000"
          d="M 23.761719 83.726562 L 21.472656 82.90625 L 19.429688 77.238281 C 19.296875 76.863281 19.160156 76.535156 19.023438 76.253906 C 18.886719 75.96875 18.726562 75.730469 18.539062 75.539062 C 18.355469 75.34375 18.128906 75.195312 17.851562 75.097656 C 17.550781 74.988281 17.269531 74.960938 17.011719 75.015625 C 16.75 75.0625 16.523438 75.179688 16.328125 75.363281 C 16.128906 75.546875 15.976562 75.78125 15.871094 76.074219 C 15.765625 76.371094 15.730469 76.648438 15.769531 76.917969 C 15.808594 77.179688 15.917969 77.414062 16.105469 77.617188 C 16.289062 77.820312 16.546875 77.984375 16.875 78.101562 L 15.785156 81.117188 C 14.960938 80.820312 14.320312 80.382812 13.859375 79.796875 C 13.394531 79.214844 13.128906 78.527344 13.050781 77.738281 C 12.972656 76.949219 13.097656 76.101562 13.425781 75.195312 C 13.761719 74.257812 14.203125 73.5 14.753906 72.925781 C 15.300781 72.34375 15.910156 71.960938 16.585938 71.78125 C 17.261719 71.601562 17.964844 71.640625 18.695312 71.902344 C 19.144531 72.0625 19.558594 72.320312 19.9375 72.664062 C 20.3125 73.011719 20.683594 73.523438 21.042969 74.199219 C 21.40625 74.878906 21.800781 75.792969 22.222656 76.953125 L 22.742188 78.378906 L 22.8125 78.40625 L 24.457031 73.835938 L 26.996094 74.746094 Z M 23.761719 83.726562 "
          fill-opacity="1" fill-rule="nonzero"/>
    <path fill="#000000"
          d="M 29.40625 69.726562 L 23.214844 60.835938 L 23.148438 60.800781 L 20.421875 65.847656 L 18.046875 64.566406 L 22.4375 56.445312 L 24.8125 57.726562 L 31.058594 66.671875 Z M 29.40625 69.726562 "
          fill-opacity="1" fill-rule="nonzero"/>
    <path fill="#000000"
          d="M 33.28125 46.460938 L 35.226562 47.921875 L 31.527344 52.832031 L 29.585938 51.371094 Z M 28.511719 49.078125 L 30.53125 46.398438 L 37.378906 51.542969 C 37.484375 51.621094 37.585938 51.671875 37.683594 51.6875 C 37.777344 51.703125 37.871094 51.6875 37.960938 51.640625 C 38.050781 51.589844 38.140625 51.507812 38.226562 51.390625 C 38.289062 51.308594 38.347656 51.207031 38.410156 51.085938 C 38.472656 50.960938 38.515625 50.871094 38.542969 50.808594 L 40.71875 51.835938 C 40.664062 51.980469 40.582031 52.1875 40.464844 52.449219 C 40.351562 52.707031 40.1875 52.996094 39.972656 53.3125 C 39.542969 53.949219 39.09375 54.417969 38.621094 54.71875 C 38.144531 55.011719 37.652344 55.136719 37.148438 55.085938 C 36.644531 55.035156 36.132812 54.8125 35.617188 54.414062 Z M 28.511719 49.078125 "
          fill-opacity="1" fill-rule="nonzero"/>
    <path fill="#000000"
          d="M 43.441406 41.292969 L 47.121094 45.035156 L 44.726562 47.382812 L 36.003906 38.511719 L 38.3125 36.246094 L 41.738281 39.730469 L 41.804688 39.664062 C 41.539062 39.089844 41.464844 38.515625 41.582031 37.933594 C 41.695312 37.351562 42 36.820312 42.488281 36.335938 C 42.960938 35.875 43.476562 35.582031 44.03125 35.453125 C 44.59375 35.324219 45.152344 35.355469 45.710938 35.542969 C 46.273438 35.726562 46.792969 36.0625 47.265625 36.550781 L 51.441406 40.796875 L 49.046875 43.148438 L 45.367188 39.402344 C 45.046875 39.070312 44.710938 38.894531 44.359375 38.871094 C 44.007812 38.84375 43.679688 38.980469 43.375 39.28125 C 43.179688 39.472656 43.050781 39.683594 42.988281 39.914062 C 42.925781 40.140625 42.933594 40.371094 43.011719 40.609375 C 43.085938 40.84375 43.230469 41.070312 43.441406 41.292969 Z M 43.441406 41.292969 "
          fill-opacity="1" fill-rule="nonzero"/>
    <path fill="#000000"
          d="M 70.550781 13.738281 L 76.269531 24.785156 L 73.761719 26.078125 L 66.765625 22.339844 L 66.699219 22.371094 L 69.703125 28.175781 L 66.699219 29.726562 L 60.984375 18.679688 L 63.53125 17.363281 L 70.457031 21.117188 L 70.542969 21.070312 L 67.550781 15.289062 Z M 70.550781 13.738281 "
          fill-opacity="1" fill-rule="nonzero"/>
    <path fill="#000000"
          d="M 84.210938 22.070312 C 83.253906 22.394531 82.367188 22.484375 81.554688 22.335938 C 80.742188 22.183594 80.039062 21.828125 79.441406 21.269531 C 78.84375 20.707031 78.390625 19.976562 78.082031 19.070312 C 77.773438 18.164062 77.6875 17.308594 77.820312 16.503906 C 77.953125 15.695312 78.292969 14.984375 78.847656 14.371094 C 79.398438 13.757812 80.15625 13.289062 81.117188 12.960938 C 82.074219 12.636719 82.960938 12.550781 83.773438 12.699219 C 84.585938 12.847656 85.292969 13.203125 85.890625 13.765625 C 86.484375 14.324219 86.9375 15.054688 87.246094 15.960938 C 87.554688 16.867188 87.640625 17.722656 87.511719 18.53125 C 87.378906 19.335938 87.035156 20.046875 86.484375 20.664062 C 85.929688 21.273438 85.171875 21.742188 84.210938 22.070312 Z M 83.4375 19.714844 C 83.707031 19.625 83.910156 19.457031 84.042969 19.207031 C 84.175781 18.960938 84.242188 18.652344 84.234375 18.285156 C 84.230469 17.914062 84.148438 17.5 83.992188 17.039062 C 83.835938 16.574219 83.644531 16.195312 83.425781 15.902344 C 83.203125 15.605469 82.964844 15.402344 82.707031 15.289062 C 82.453125 15.175781 82.1875 15.164062 81.921875 15.253906 C 81.636719 15.351562 81.425781 15.523438 81.28125 15.773438 C 81.140625 16.019531 81.070312 16.332031 81.078125 16.699219 C 81.082031 17.066406 81.164062 17.480469 81.320312 17.945312 C 81.476562 18.40625 81.667969 18.785156 81.886719 19.082031 C 82.109375 19.378906 82.351562 19.582031 82.617188 19.695312 C 82.878906 19.804688 83.15625 19.8125 83.4375 19.714844 Z M 83.4375 19.714844 "
          fill-opacity="1" fill-rule="nonzero"/>
    <path fill="#000000"
          d="M 101.753906 8.191406 L 100.316406 17.925781 L 96.488281 18.613281 L 91.75 9.988281 L 95.21875 9.363281 L 97.796875 15.171875 L 97.890625 15.152344 L 98.28125 8.816406 Z M 101.753906 8.191406 "
          fill-opacity="1" fill-rule="nonzero"/>
    <path fill="#000000"
          d="M 112.21875 17.054688 C 111.222656 17.082031 110.359375 16.917969 109.628906 16.558594 C 108.898438 16.195312 108.332031 15.660156 107.921875 14.953125 C 107.515625 14.246094 107.300781 13.386719 107.273438 12.382812 C 107.246094 11.421875 107.414062 10.574219 107.785156 9.84375 C 108.152344 9.113281 108.683594 8.535156 109.382812 8.113281 C 110.082031 7.695312 110.910156 7.46875 111.875 7.441406 C 112.578125 7.421875 113.21875 7.515625 113.796875 7.714844 C 114.375 7.917969 114.871094 8.222656 115.289062 8.628906 C 115.707031 9.03125 116.03125 9.523438 116.269531 10.105469 C 116.503906 10.691406 116.632812 11.355469 116.652344 12.09375 L 116.675781 12.871094 L 108.339844 13.109375 L 108.285156 11.261719 L 113.535156 11.113281 C 113.523438 10.847656 113.449219 10.613281 113.308594 10.414062 C 113.175781 10.210938 112.992188 10.058594 112.765625 9.949219 C 112.546875 9.839844 112.292969 9.789062 112.015625 9.796875 C 111.742188 9.804688 111.496094 9.871094 111.273438 9.992188 C 111.046875 10.113281 110.871094 10.277344 110.738281 10.480469 C 110.609375 10.6875 110.546875 10.925781 110.546875 11.199219 L 110.601562 13.1875 C 110.613281 13.488281 110.679688 13.753906 110.8125 13.984375 C 110.945312 14.214844 111.132812 14.394531 111.371094 14.523438 C 111.609375 14.648438 111.894531 14.707031 112.226562 14.699219 C 112.457031 14.691406 112.667969 14.652344 112.855469 14.582031 C 113.046875 14.511719 113.210938 14.414062 113.347656 14.289062 C 113.480469 14.160156 113.578125 14.007812 113.636719 13.832031 L 116.699219 13.746094 C 116.613281 14.394531 116.378906 14.964844 116 15.453125 C 115.621094 15.9375 115.109375 16.320312 114.46875 16.601562 C 113.832031 16.878906 113.082031 17.03125 112.21875 17.054688 Z M 112.21875 17.054688 "
          fill-opacity="1" fill-rule="nonzero"/>
    <path fill="#000000"
          d="M 119.640625 16.738281 L 120.773438 7.476562 L 123.933594 7.863281 L 123.71875 9.625 L 123.816406 9.636719 C 124.078125 9.078125 124.464844 8.660156 124.972656 8.382812 C 125.480469 8.101562 126.054688 8 126.699219 8.078125 C 127.351562 8.15625 127.890625 8.398438 128.320312 8.800781 C 128.75 9.199219 128.976562 9.6875 129.003906 10.265625 L 129.101562 10.277344 C 129.328125 9.730469 129.714844 9.316406 130.269531 9.039062 C 130.820312 8.753906 131.441406 8.65625 132.128906 8.738281 C 133.019531 8.847656 133.703125 9.21875 134.1875 9.859375 C 134.671875 10.496094 134.855469 11.289062 134.738281 12.238281 L 133.976562 18.480469 L 130.648438 18.078125 L 131.304688 12.675781 C 131.355469 12.269531 131.292969 11.941406 131.113281 11.6875 C 130.9375 11.429688 130.675781 11.277344 130.332031 11.234375 C 129.988281 11.195312 129.703125 11.277344 129.472656 11.488281 C 129.25 11.691406 129.113281 11.996094 129.0625 12.402344 L 128.402344 17.804688 L 125.21875 17.414062 L 125.875 12.015625 C 125.925781 11.609375 125.863281 11.277344 125.683594 11.023438 C 125.507812 10.765625 125.246094 10.617188 124.902344 10.574219 C 124.671875 10.546875 124.46875 10.574219 124.289062 10.660156 C 124.113281 10.742188 123.964844 10.878906 123.847656 11.066406 C 123.738281 11.246094 123.664062 11.472656 123.632812 11.742188 L 122.972656 17.140625 Z M 119.640625 16.738281 "
          fill-opacity="1" fill-rule="nonzero"/>
    <path fill="#000000"
          d="M 136.191406 19.1875 L 139.523438 7.203125 L 142.757812 8.101562 L 141.488281 12.664062 L 141.535156 12.675781 C 141.734375 12.40625 141.984375 12.175781 142.28125 11.984375 C 142.582031 11.789062 142.917969 11.660156 143.296875 11.601562 C 143.675781 11.539062 144.085938 11.570312 144.53125 11.695312 C 145.125 11.859375 145.648438 12.171875 146.09375 12.636719 C 146.542969 13.101562 146.84375 13.722656 146.992188 14.492188 C 147.140625 15.265625 147.066406 16.195312 146.765625 17.277344 C 146.476562 18.316406 146.078125 19.132812 145.5625 19.726562 C 145.050781 20.316406 144.480469 20.707031 143.847656 20.894531 C 143.222656 21.082031 142.585938 21.085938 141.945312 20.90625 C 141.523438 20.792969 141.167969 20.617188 140.871094 20.390625 C 140.582031 20.160156 140.355469 19.890625 140.1875 19.589844 C 140.023438 19.28125 139.921875 18.960938 139.882812 18.621094 L 139.8125 18.601562 L 139.402344 20.078125 Z M 140.605469 15.570312 C 140.480469 16.007812 140.433594 16.402344 140.457031 16.753906 C 140.488281 17.101562 140.582031 17.390625 140.746094 17.625 C 140.914062 17.855469 141.144531 18.015625 141.441406 18.097656 C 141.738281 18.179688 142.011719 18.164062 142.265625 18.054688 C 142.523438 17.941406 142.753906 17.742188 142.949219 17.457031 C 143.152344 17.167969 143.316406 16.800781 143.4375 16.355469 C 143.5625 15.910156 143.613281 15.515625 143.585938 15.167969 C 143.566406 14.820312 143.472656 14.53125 143.308594 14.304688 C 143.148438 14.074219 142.921875 13.917969 142.625 13.835938 C 142.328125 13.753906 142.046875 13.769531 141.785156 13.882812 C 141.527344 13.992188 141.296875 14.1875 141.089844 14.476562 C 140.890625 14.761719 140.726562 15.125 140.605469 15.570312 Z M 140.605469 15.570312 "
          fill-opacity="1" fill-rule="nonzero"/>
    <path fill="#000000"
          d="M 153.707031 25.339844 C 152.796875 24.933594 152.089844 24.410156 151.589844 23.769531 C 151.089844 23.125 150.808594 22.394531 150.75 21.585938 C 150.691406 20.769531 150.867188 19.902344 151.277344 18.988281 C 151.671875 18.105469 152.191406 17.417969 152.84375 16.917969 C 153.492188 16.417969 154.222656 16.132812 155.035156 16.054688 C 155.84375 15.976562 156.691406 16.136719 157.570312 16.53125 C 158.214844 16.816406 158.753906 17.175781 159.183594 17.609375 C 159.617188 18.042969 159.933594 18.53125 160.132812 19.078125 C 160.335938 19.621094 160.414062 20.207031 160.371094 20.832031 C 160.332031 21.460938 160.160156 22.113281 159.855469 22.792969 L 159.539062 23.5 L 151.925781 20.101562 L 152.679688 18.414062 L 157.472656 20.558594 C 157.578125 20.3125 157.613281 20.070312 157.574219 19.828125 C 157.539062 19.589844 157.441406 19.371094 157.285156 19.175781 C 157.132812 18.980469 156.929688 18.824219 156.675781 18.710938 C 156.425781 18.601562 156.175781 18.550781 155.921875 18.566406 C 155.667969 18.578125 155.4375 18.648438 155.226562 18.777344 C 155.023438 18.90625 154.863281 19.09375 154.742188 19.335938 L 153.929688 21.15625 C 153.808594 21.429688 153.753906 21.699219 153.773438 21.964844 C 153.792969 22.230469 153.882812 22.472656 154.042969 22.6875 C 154.203125 22.90625 154.433594 23.082031 154.738281 23.21875 C 154.949219 23.3125 155.152344 23.371094 155.355469 23.386719 C 155.558594 23.410156 155.746094 23.390625 155.921875 23.335938 C 156.101562 23.277344 156.253906 23.183594 156.382812 23.050781 L 159.179688 24.300781 C 158.820312 24.847656 158.363281 25.257812 157.808594 25.535156 C 157.257812 25.808594 156.628906 25.933594 155.929688 25.90625 C 155.238281 25.882812 154.496094 25.691406 153.707031 25.339844 Z M 153.707031 25.339844 "
          fill-opacity="1" fill-rule="nonzero"/>
    <path fill="#000000"
          d="M 163.785156 30.351562 L 168.824219 22.5 L 171.566406 24.257812 L 170.609375 25.75 L 170.691406 25.800781 C 171.1875 25.34375 171.675781 25.082031 172.148438 25.027344 C 172.628906 24.972656 173.078125 25.078125 173.496094 25.347656 C 173.617188 25.425781 173.734375 25.515625 173.839844 25.613281 C 173.949219 25.707031 174.050781 25.808594 174.144531 25.914062 L 172.597656 28.320312 C 172.488281 28.183594 172.339844 28.039062 172.148438 27.882812 C 171.960938 27.730469 171.792969 27.605469 171.644531 27.511719 C 171.371094 27.332031 171.078125 27.238281 170.777344 27.222656 C 170.480469 27.203125 170.195312 27.265625 169.925781 27.410156 C 169.65625 27.550781 169.425781 27.773438 169.234375 28.074219 L 166.609375 32.160156 Z M 163.785156 30.351562 "
          fill-opacity="1" fill-rule="nonzero"/>
    <path fill="#000000"
          d="M 189.488281 48.941406 C 188.195312 47.410156 188.363281 45.121094 189.921875 43.808594 C 191.476562 42.496094 193.765625 42.710938 195.058594 44.238281 C 196.351562 45.765625 196.15625 48.082031 194.625 49.371094 C 193.082031 50.671875 190.78125 50.46875 189.488281 48.941406 Z M 190.035156 48.476562 C 191.097656 49.730469 192.945312 49.847656 194.164062 48.824219 C 195.402344 47.773438 195.570312 45.957031 194.507812 44.703125 C 193.480469 43.488281 191.640625 43.296875 190.382812 44.355469 C 189.128906 45.414062 189.007812 47.261719 190.035156 48.476562 Z M 190.035156 48.476562 "
          fill-opacity="1" fill-rule="nonzero"/>
    <path fill="#000000"
          d="M 214.898438 72.253906 L 203.445312 77.125 L 202.121094 74.015625 L 210.710938 70.363281 L 210.683594 70.296875 L 208.117188 68.433594 L 210.757812 67.308594 L 213.679688 69.394531 Z M 214.898438 72.253906 "
          fill-opacity="1" fill-rule="nonzero"/>
    <path fill="#000000"
          d="M 206.957031 88.695312 C 206.707031 87.722656 206.632812 86.816406 206.738281 85.976562 C 206.84375 85.136719 207.097656 84.429688 207.503906 83.859375 C 207.910156 83.289062 208.4375 82.921875 209.089844 82.753906 C 209.585938 82.625 210.074219 82.632812 210.550781 82.773438 C 211.027344 82.914062 211.457031 83.164062 211.835938 83.519531 C 212.21875 83.871094 212.519531 84.296875 212.730469 84.796875 L 212.824219 84.773438 C 212.765625 84.058594 212.925781 83.414062 213.300781 82.847656 C 213.679688 82.277344 214.207031 81.910156 214.878906 81.738281 C 215.507812 81.574219 216.121094 81.628906 216.714844 81.902344 C 217.3125 82.175781 217.84375 82.621094 218.304688 83.242188 C 218.765625 83.863281 219.113281 84.617188 219.34375 85.5 C 219.570312 86.386719 219.632812 87.214844 219.523438 87.980469 C 219.421875 88.75 219.175781 89.394531 218.785156 89.921875 C 218.398438 90.449219 217.890625 90.792969 217.261719 90.957031 C 216.585938 91.128906 215.945312 91.054688 215.339844 90.734375 C 214.734375 90.414062 214.285156 89.933594 213.992188 89.289062 L 213.898438 89.3125 C 213.953125 89.851562 213.898438 90.367188 213.734375 90.863281 C 213.574219 91.355469 213.320312 91.78125 212.972656 92.136719 C 212.625 92.492188 212.203125 92.738281 211.703125 92.863281 C 211.050781 93.035156 210.410156 92.964844 209.777344 92.660156 C 209.148438 92.359375 208.582031 91.863281 208.085938 91.175781 C 207.585938 90.496094 207.210938 89.667969 206.957031 88.695312 Z M 209.21875 88.113281 C 209.296875 88.421875 209.433594 88.679688 209.621094 88.886719 C 209.808594 89.09375 210.027344 89.238281 210.285156 89.316406 C 210.542969 89.402344 210.8125 89.40625 211.09375 89.335938 C 211.371094 89.261719 211.597656 89.128906 211.777344 88.933594 C 211.960938 88.738281 212.078125 88.507812 212.140625 88.238281 C 212.203125 87.964844 212.195312 87.675781 212.113281 87.367188 C 212.035156 87.058594 211.902344 86.800781 211.714844 86.589844 C 211.53125 86.382812 211.3125 86.238281 211.058594 86.152344 C 210.808594 86.070312 210.542969 86.066406 210.265625 86.136719 C 209.984375 86.210938 209.753906 86.34375 209.570312 86.535156 C 209.386719 86.734375 209.261719 86.96875 209.195312 87.242188 C 209.132812 87.515625 209.140625 87.808594 209.21875 88.113281 Z M 214.375 86.78125 C 214.445312 87.058594 214.566406 87.285156 214.734375 87.46875 C 214.902344 87.648438 215.101562 87.777344 215.332031 87.847656 C 215.566406 87.917969 215.808594 87.917969 216.058594 87.855469 C 216.308594 87.789062 216.515625 87.671875 216.675781 87.5 C 216.839844 87.328125 216.949219 87.121094 217.003906 86.882812 C 217.066406 86.640625 217.058594 86.382812 216.988281 86.109375 C 216.917969 85.839844 216.796875 85.609375 216.628906 85.421875 C 216.464844 85.242188 216.269531 85.113281 216.039062 85.042969 C 215.816406 84.96875 215.578125 84.96875 215.328125 85.03125 C 215.078125 85.097656 214.867188 85.214844 214.699219 85.390625 C 214.535156 85.5625 214.417969 85.769531 214.355469 86.011719 C 214.296875 86.253906 214.304688 86.511719 214.375 86.78125 Z M 214.375 86.78125 "
          fill-opacity="1" fill-rule="nonzero"/>
    <path fill="#000000"
          d="M 209.378906 102.679688 C 209.332031 102.214844 209.453125 101.796875 209.746094 101.429688 C 210.042969 101.0625 210.425781 100.859375 210.898438 100.816406 C 211.355469 100.761719 211.765625 100.886719 212.128906 101.183594 C 212.488281 101.484375 212.691406 101.867188 212.742188 102.332031 C 212.789062 102.777344 212.664062 103.183594 212.375 103.554688 C 212.082031 103.933594 211.707031 104.144531 211.25 104.195312 C 210.933594 104.226562 210.636719 104.171875 210.363281 104.039062 C 210.09375 103.90625 209.867188 103.722656 209.691406 103.484375 C 209.515625 103.246094 209.410156 102.980469 209.378906 102.679688 Z M 215.621094 102.035156 C 215.570312 101.570312 215.691406 101.152344 215.984375 100.785156 C 216.28125 100.417969 216.664062 100.214844 217.136719 100.167969 C 217.597656 100.117188 218.007812 100.242188 218.367188 100.539062 C 218.726562 100.835938 218.933594 101.222656 218.980469 101.6875 C 219.027344 102.132812 218.90625 102.539062 218.613281 102.910156 C 218.320312 103.285156 217.945312 103.5 217.488281 103.550781 C 217.171875 103.582031 216.878906 103.527344 216.605469 103.394531 C 216.332031 103.261719 216.109375 103.078125 215.929688 102.839844 C 215.753906 102.601562 215.648438 102.332031 215.621094 102.035156 Z M 215.621094 102.035156 "
          fill-opacity="1" fill-rule="nonzero"/>
    <path fill="#000000"
          d="M 209.566406 116.855469 C 209.621094 115.730469 209.929688 114.765625 210.484375 113.96875 C 211.042969 113.171875 211.816406 112.574219 212.8125 112.175781 C 213.8125 111.777344 214.992188 111.609375 216.355469 111.675781 C 217.722656 111.746094 218.875 112.023438 219.808594 112.507812 C 220.742188 112.996094 221.441406 113.660156 221.902344 114.5 C 222.359375 115.34375 222.5625 116.332031 222.511719 117.457031 C 222.457031 118.585938 222.164062 119.550781 221.621094 120.347656 C 221.085938 121.144531 220.332031 121.742188 219.355469 122.144531 C 218.378906 122.542969 217.207031 122.710938 215.84375 122.644531 C 214.472656 122.582031 213.308594 122.304688 212.355469 121.8125 C 211.398438 121.324219 210.679688 120.65625 210.203125 119.8125 C 209.726562 118.96875 209.511719 117.984375 209.566406 116.855469 Z M 212.3125 116.984375 C 212.285156 117.566406 212.566406 118.058594 213.15625 118.457031 C 213.75 118.863281 214.699219 119.09375 216.007812 119.148438 C 216.859375 119.191406 217.5625 119.136719 218.113281 118.992188 C 218.664062 118.847656 219.074219 118.632812 219.347656 118.34375 C 219.625 118.058594 219.773438 117.71875 219.789062 117.332031 C 219.816406 116.75 219.546875 116.261719 218.972656 115.867188 C 218.398438 115.46875 217.472656 115.238281 216.191406 115.171875 C 215.320312 115.125 214.601562 115.175781 214.03125 115.320312 C 213.464844 115.464844 213.039062 115.679688 212.761719 115.964844 C 212.480469 116.257812 212.328125 116.597656 212.3125 116.984375 Z M 212.3125 116.984375 "
          fill-opacity="1" fill-rule="nonzero"/>
    <path fill="#000000"
          d="M 207.78125 130.914062 C 208.003906 129.804688 208.453125 128.898438 209.121094 128.195312 C 209.789062 127.488281 210.644531 127.011719 211.691406 126.765625 C 212.734375 126.519531 213.925781 126.53125 215.265625 126.800781 C 216.609375 127.070312 217.707031 127.515625 218.558594 128.136719 C 219.410156 128.757812 220 129.519531 220.328125 130.417969 C 220.65625 131.320312 220.710938 132.328125 220.492188 133.433594 C 220.269531 134.542969 219.835938 135.449219 219.179688 136.160156 C 218.53125 136.867188 217.695312 137.347656 216.671875 137.597656 C 215.644531 137.847656 214.464844 137.839844 213.125 137.570312 C 211.777344 137.300781 210.667969 136.855469 209.796875 136.226562 C 208.925781 135.601562 208.316406 134.835938 207.96875 133.925781 C 207.621094 133.023438 207.558594 132.019531 207.78125 130.914062 Z M 210.476562 131.445312 C 210.363281 132.019531 210.566406 132.546875 211.089844 133.03125 C 211.617188 133.519531 212.523438 133.886719 213.808594 134.140625 C 214.644531 134.304688 215.347656 134.359375 215.914062 134.296875 C 216.480469 134.234375 216.917969 134.082031 217.230469 133.839844 C 217.546875 133.597656 217.746094 133.285156 217.820312 132.90625 C 217.933594 132.332031 217.738281 131.808594 217.230469 131.332031 C 216.71875 130.855469 215.839844 130.488281 214.582031 130.230469 C 213.730469 130.058594 213.011719 130 212.425781 130.058594 C 211.84375 130.113281 211.390625 130.265625 211.070312 130.507812 C 210.75 130.753906 210.550781 131.066406 210.476562 131.445312 Z M 210.476562 131.445312 "
          fill-opacity="1" fill-rule="nonzero"/>
    <path fill="#000000"
          d="M 200.832031 158.40625 C 201.785156 156.644531 203.980469 155.964844 205.773438 156.933594 C 207.566406 157.898438 208.199219 160.109375 207.25 161.867188 C 206.296875 163.628906 204.070312 164.292969 202.308594 163.339844 C 200.53125 162.382812 199.882812 160.167969 200.832031 158.40625 Z M 201.464844 158.746094 C 200.683594 160.191406 201.25 161.953125 202.648438 162.710938 C 204.078125 163.480469 205.835938 162.972656 206.617188 161.527344 C 207.371094 160.128906 206.878906 158.34375 205.429688 157.566406 C 203.984375 156.785156 202.222656 157.347656 201.464844 158.746094 Z M 201.464844 158.746094 "
          fill-opacity="1" fill-rule="nonzero"/>
    <path fill="#000000"
          d="M 185.28125 182.644531 L 183.40625 184.480469 L 181.894531 184.296875 L 179.472656 184.117188 L 176.210938 183.78125 L 178.34375 181.6875 L 180.609375 181.878906 L 182.328125 182.203125 Z M 181.234375 188.859375 C 180.265625 187.871094 179.636719 186.847656 179.355469 185.792969 C 179.074219 184.738281 179.089844 183.71875 179.398438 182.726562 C 179.714844 181.738281 180.269531 180.851562 181.074219 180.0625 C 181.882812 179.269531 182.789062 178.726562 183.785156 178.433594 C 184.78125 178.148438 185.804688 178.15625 186.855469 178.453125 C 187.902344 178.757812 188.910156 179.402344 189.875 180.382812 C 190.847656 181.371094 191.472656 182.390625 191.753906 183.441406 C 192.039062 184.496094 192.023438 185.515625 191.714844 186.5 C 191.40625 187.492188 190.84375 188.382812 190.035156 189.179688 C 189.230469 189.964844 188.332031 190.507812 187.335938 190.796875 C 186.339844 191.09375 185.316406 191.089844 184.265625 190.789062 C 183.21875 190.488281 182.207031 189.84375 181.234375 188.859375 Z M 183.714844 186.425781 C 184.238281 186.957031 184.75 187.335938 185.25 187.558594 C 185.75 187.789062 186.226562 187.863281 186.6875 187.78125 C 187.144531 187.707031 187.574219 187.472656 187.972656 187.082031 C 188.375 186.6875 188.617188 186.261719 188.703125 185.804688 C 188.789062 185.347656 188.726562 184.871094 188.507812 184.363281 C 188.289062 183.863281 187.917969 183.347656 187.394531 182.816406 C 186.871094 182.285156 186.359375 181.902344 185.863281 181.671875 C 185.363281 181.449219 184.882812 181.375 184.421875 181.449219 C 183.964844 181.53125 183.535156 181.769531 183.136719 182.160156 C 182.738281 182.550781 182.492188 182.972656 182.40625 183.429688 C 182.320312 183.886719 182.386719 184.367188 182.605469 184.867188 C 182.824219 185.375 183.195312 185.894531 183.714844 186.425781 Z M 183.714844 186.425781 "
          fill-opacity="1" fill-rule="nonzero"/>
    <path fill="#000000"
          d="M 171.957031 193.132812 L 175.035156 197.378906 L 172.316406 199.347656 L 166.84375 191.792969 L 169.421875 189.925781 L 170.464844 191.363281 L 170.542969 191.304688 C 170.355469 190.703125 170.371094 190.121094 170.582031 189.550781 C 170.796875 188.984375 171.1875 188.5 171.753906 188.089844 C 172.28125 187.707031 172.832031 187.496094 173.40625 187.449219 C 173.976562 187.40625 174.523438 187.519531 175.054688 187.789062 C 175.578125 188.058594 176.042969 188.464844 176.445312 189.015625 L 179.9375 193.832031 L 177.222656 195.800781 L 174.140625 191.550781 C 173.867188 191.179688 173.558594 190.953125 173.21875 190.875 C 172.875 190.800781 172.53125 190.886719 172.1875 191.132812 C 171.960938 191.296875 171.800781 191.484375 171.707031 191.699219 C 171.609375 191.917969 171.582031 192.148438 171.621094 192.390625 C 171.660156 192.636719 171.769531 192.886719 171.957031 193.132812 Z M 171.957031 193.132812 "
          fill-opacity="1" fill-rule="nonzero"/>
    <path fill="#000000"
          d="M 159.46875 195.84375 C 159.996094 195.570312 160.507812 195.417969 161.003906 195.378906 C 161.5 195.347656 161.953125 195.449219 162.371094 195.6875 C 162.785156 195.921875 163.132812 196.316406 163.417969 196.867188 C 163.652344 197.320312 163.773438 197.746094 163.785156 198.148438 C 163.796875 198.550781 163.71875 198.925781 163.546875 199.273438 C 163.378906 199.621094 163.136719 199.945312 162.824219 200.242188 C 162.511719 200.542969 162.144531 200.816406 161.734375 201.070312 C 161.289062 201.347656 160.9375 201.582031 160.683594 201.777344 C 160.429688 201.980469 160.261719 202.160156 160.183594 202.316406 C 160.105469 202.480469 160.109375 202.640625 160.191406 202.796875 L 160.203125 202.820312 C 160.316406 203.035156 160.484375 203.15625 160.707031 203.1875 C 160.933594 203.21875 161.175781 203.164062 161.433594 203.03125 C 161.71875 202.882812 161.917969 202.703125 162.035156 202.484375 C 162.148438 202.269531 162.15625 202.027344 162.058594 201.75 L 164.800781 200.335938 C 165.027344 200.859375 165.105469 201.402344 165.042969 201.976562 C 164.976562 202.550781 164.734375 203.109375 164.316406 203.648438 C 163.898438 204.191406 163.277344 204.675781 162.453125 205.101562 C 161.859375 205.410156 161.289062 205.613281 160.746094 205.71875 C 160.203125 205.824219 159.703125 205.839844 159.242188 205.761719 C 158.785156 205.691406 158.382812 205.53125 158.039062 205.289062 C 157.695312 205.054688 157.421875 204.742188 157.222656 204.359375 L 154.285156 198.683594 L 157.074219 197.246094 L 157.675781 198.410156 L 157.742188 198.378906 C 157.746094 197.984375 157.816406 197.628906 157.957031 197.316406 C 158.09375 197.003906 158.289062 196.726562 158.546875 196.484375 C 158.800781 196.242188 159.109375 196.03125 159.46875 195.84375 Z M 159.46875 198.222656 C 159.242188 198.339844 159.050781 198.496094 158.902344 198.691406 C 158.75 198.890625 158.65625 199.109375 158.621094 199.351562 C 158.585938 199.59375 158.632812 199.839844 158.765625 200.089844 L 159.121094 200.78125 C 159.183594 200.707031 159.253906 200.632812 159.328125 200.558594 C 159.398438 200.484375 159.480469 200.410156 159.566406 200.332031 C 159.652344 200.257812 159.742188 200.179688 159.84375 200.101562 C 159.941406 200.023438 160.042969 199.945312 160.152344 199.867188 C 160.363281 199.710938 160.523438 199.554688 160.628906 199.394531 C 160.730469 199.242188 160.789062 199.085938 160.796875 198.929688 C 160.808594 198.78125 160.773438 198.632812 160.699219 198.488281 C 160.582031 198.257812 160.410156 198.125 160.183594 198.085938 C 159.957031 198.046875 159.71875 198.09375 159.46875 198.222656 Z M 159.46875 198.222656 "
          fill-opacity="1" fill-rule="nonzero"/>
    <path fill="#000000"
          d="M 146.164062 201.683594 C 146.792969 201.472656 147.429688 201.4375 148.070312 201.589844 C 148.707031 201.738281 149.300781 202.097656 149.847656 202.660156 C 150.386719 203.222656 150.832031 204.015625 151.179688 205.035156 C 151.542969 206.101562 151.671875 207.023438 151.570312 207.800781 C 151.460938 208.582031 151.199219 209.214844 150.777344 209.703125 C 150.355469 210.195312 149.851562 210.539062 149.269531 210.738281 C 148.832031 210.886719 148.421875 210.941406 148.039062 210.898438 C 147.65625 210.859375 147.3125 210.753906 147.003906 210.574219 C 146.695312 210.402344 146.433594 210.183594 146.21875 209.925781 L 146.171875 209.941406 L 147.699219 214.425781 L 144.519531 215.503906 L 140.515625 203.730469 L 143.667969 202.660156 L 144.164062 204.109375 L 144.230469 204.085938 C 144.253906 203.742188 144.335938 203.414062 144.488281 203.101562 C 144.632812 202.789062 144.847656 202.507812 145.125 202.261719 C 145.402344 202.015625 145.75 201.824219 146.164062 201.683594 Z M 145.816406 204.519531 C 145.527344 204.621094 145.304688 204.789062 145.15625 205.027344 C 145.003906 205.269531 144.925781 205.566406 144.917969 205.914062 C 144.910156 206.269531 144.980469 206.660156 145.125 207.089844 C 145.273438 207.527344 145.457031 207.882812 145.679688 208.152344 C 145.898438 208.429688 146.140625 208.613281 146.40625 208.707031 C 146.671875 208.804688 146.949219 208.804688 147.242188 208.707031 C 147.535156 208.605469 147.753906 208.4375 147.902344 208.199219 C 148.050781 207.964844 148.125 207.671875 148.132812 207.320312 C 148.132812 206.972656 148.058594 206.582031 147.910156 206.144531 C 147.761719 205.707031 147.582031 205.351562 147.367188 205.074219 C 147.148438 204.800781 146.910156 204.613281 146.648438 204.515625 C 146.386719 204.417969 146.109375 204.421875 145.816406 204.519531 Z M 145.816406 204.519531 "
          fill-opacity="1" fill-rule="nonzero"/>
    <path fill="#000000"
          d="M 111.871094 215.011719 L 115.296875 214.917969 C 115.328125 215.199219 115.402344 215.453125 115.511719 215.683594 C 115.621094 215.910156 115.769531 216.105469 115.953125 216.265625 C 116.136719 216.429688 116.359375 216.554688 116.617188 216.636719 C 116.875 216.71875 117.164062 216.757812 117.488281 216.75 C 118.054688 216.734375 118.53125 216.582031 118.917969 216.296875 C 119.296875 216.011719 119.582031 215.609375 119.769531 215.085938 C 119.953125 214.570312 120.035156 213.949219 120.015625 213.226562 C 119.996094 212.46875 119.875 211.832031 119.65625 211.324219 C 119.4375 210.820312 119.128906 210.445312 118.730469 210.195312 C 118.335938 209.953125 117.863281 209.839844 117.316406 209.855469 C 117.003906 209.863281 116.726562 209.910156 116.484375 209.992188 C 116.238281 210.082031 116.027344 210.203125 115.847656 210.359375 C 115.671875 210.511719 115.527344 210.695312 115.417969 210.910156 C 115.308594 211.128906 115.238281 211.371094 115.203125 211.640625 L 111.777344 211.710938 C 111.800781 211.183594 111.933594 210.644531 112.171875 210.089844 C 112.414062 209.542969 112.761719 209.03125 113.21875 208.554688 C 113.671875 208.085938 114.238281 207.699219 114.917969 207.402344 C 115.601562 207.101562 116.394531 206.941406 117.308594 206.914062 C 118.449219 206.882812 119.480469 207.097656 120.402344 207.5625 C 121.320312 208.027344 122.054688 208.726562 122.609375 209.660156 C 123.160156 210.597656 123.453125 211.753906 123.492188 213.128906 C 123.53125 214.515625 123.296875 215.6875 122.789062 216.648438 C 122.28125 217.613281 121.578125 218.351562 120.6875 218.863281 C 119.792969 219.378906 118.789062 219.652344 117.667969 219.683594 C 116.882812 219.707031 116.15625 219.621094 115.492188 219.425781 C 114.824219 219.230469 114.238281 218.929688 113.726562 218.53125 C 113.214844 218.136719 112.800781 217.644531 112.480469 217.054688 C 112.160156 216.464844 111.957031 215.785156 111.871094 215.011719 Z M 111.871094 215.011719 "
          fill-opacity="1" fill-rule="nonzero"/>
    <path fill="#000000"
          d="M 103.179688 206.234375 C 104.167969 206.355469 105 206.648438 105.667969 207.113281 C 106.332031 207.582031 106.816406 208.195312 107.117188 208.953125 C 107.410156 209.714844 107.496094 210.59375 107.375 211.589844 C 107.257812 212.546875 106.964844 213.359375 106.488281 214.027344 C 106.015625 214.695312 105.402344 215.1875 104.652344 215.5 C 103.898438 215.8125 103.042969 215.910156 102.085938 215.792969 C 101.386719 215.707031 100.765625 215.523438 100.226562 215.234375 C 99.683594 214.949219 99.238281 214.574219 98.886719 214.113281 C 98.535156 213.652344 98.285156 213.117188 98.140625 212.503906 C 97.996094 211.890625 97.964844 211.214844 98.054688 210.480469 L 98.148438 209.710938 L 106.429688 210.71875 L 106.203125 212.550781 L 100.992188 211.914062 C 100.964844 212.179688 101.003906 212.421875 101.113281 212.640625 C 101.214844 212.859375 101.371094 213.039062 101.578125 213.179688 C 101.78125 213.324219 102.023438 213.410156 102.300781 213.445312 C 102.570312 213.476562 102.824219 213.449219 103.0625 213.359375 C 103.300781 213.273438 103.503906 213.140625 103.664062 212.957031 C 103.820312 212.769531 103.917969 212.546875 103.960938 212.277344 L 104.203125 210.300781 C 104.238281 210.003906 104.207031 209.730469 104.113281 209.480469 C 104.015625 209.234375 103.859375 209.027344 103.640625 208.867188 C 103.425781 208.707031 103.152344 208.605469 102.820312 208.566406 C 102.59375 208.539062 102.378906 208.542969 102.183594 208.585938 C 101.980469 208.625 101.804688 208.699219 101.652344 208.804688 C 101.5 208.910156 101.382812 209.046875 101.296875 209.210938 L 98.257812 208.84375 C 98.4375 208.210938 98.753906 207.683594 99.203125 207.257812 C 99.648438 206.835938 100.210938 206.53125 100.886719 206.347656 C 101.558594 206.167969 102.320312 206.132812 103.179688 206.234375 Z M 103.179688 206.234375 "
          fill-opacity="1" fill-rule="nonzero"/>
    <path fill="#000000"
          d="M 89.1875 209.058594 L 90.59375 204.003906 L 93.824219 204.898438 L 91.328125 213.886719 L 88.257812 213.035156 L 88.734375 211.328125 L 88.640625 211.300781 C 88.285156 211.816406 87.816406 212.167969 87.234375 212.355469 C 86.648438 212.542969 86.027344 212.542969 85.367188 212.359375 C 84.730469 212.183594 84.21875 211.882812 83.832031 211.460938 C 83.441406 211.042969 83.183594 210.542969 83.066406 209.964844 C 82.949219 209.382812 82.980469 208.769531 83.164062 208.117188 L 84.757812 202.386719 L 87.992188 203.28125 L 86.585938 208.335938 C 86.460938 208.78125 86.476562 209.160156 86.636719 209.480469 C 86.792969 209.796875 87.070312 210.007812 87.476562 210.121094 C 87.742188 210.195312 87.992188 210.203125 88.222656 210.140625 C 88.449219 210.082031 88.648438 209.957031 88.8125 209.773438 C 88.976562 209.59375 89.101562 209.355469 89.1875 209.058594 Z M 89.1875 209.058594 "
          fill-opacity="1" fill-rule="nonzero"/>
    <path fill="#000000"
          d="M 68.984375 205.949219 L 69.976562 203.730469 L 75.59375 206.242188 L 74.601562 208.457031 Z M 72.601562 210.011719 L 69.539062 208.644531 L 73.035156 200.828125 C 73.089844 200.710938 73.113281 200.601562 73.109375 200.5 C 73.101562 200.40625 73.066406 200.316406 73 200.238281 C 72.929688 200.164062 72.828125 200.097656 72.695312 200.039062 C 72.605469 199.996094 72.492188 199.960938 72.359375 199.925781 C 72.222656 199.894531 72.125 199.871094 72.058594 199.859375 L 72.574219 197.507812 C 72.730469 197.53125 72.949219 197.566406 73.230469 197.621094 C 73.507812 197.675781 73.828125 197.769531 74.183594 197.90625 C 74.902344 198.183594 75.460938 198.519531 75.855469 198.914062 C 76.25 199.3125 76.480469 199.761719 76.542969 200.265625 C 76.605469 200.769531 76.5 201.316406 76.226562 201.90625 Z M 72.601562 210.011719 "
          fill-opacity="1" fill-rule="nonzero"/>
    <path fill="#000000"
          d="M 65.804688 193.613281 L 60.769531 201.46875 L 58.023438 199.710938 L 58.980469 198.21875 L 58.902344 198.164062 C 58.402344 198.625 57.917969 198.882812 57.441406 198.941406 C 56.964844 198.996094 56.515625 198.890625 56.097656 198.621094 C 55.972656 198.542969 55.859375 198.453125 55.753906 198.355469 C 55.640625 198.261719 55.539062 198.160156 55.449219 198.054688 L 56.992188 195.644531 C 57.101562 195.785156 57.253906 195.929688 57.441406 196.085938 C 57.632812 196.238281 57.800781 196.363281 57.945312 196.457031 C 58.222656 196.632812 58.511719 196.730469 58.816406 196.746094 C 59.113281 196.765625 59.394531 196.699219 59.664062 196.554688 C 59.933594 196.414062 60.164062 196.195312 60.355469 195.894531 L 62.980469 191.804688 Z M 65.804688 193.613281 "
          fill-opacity="1" fill-rule="nonzero"/>
    <path fill="#000000"
          d="M 52.96875 184.160156 C 53.417969 184.554688 53.75 184.972656 53.964844 185.421875 C 54.175781 185.871094 54.246094 186.328125 54.175781 186.800781 C 54.109375 187.273438 53.867188 187.742188 53.460938 188.207031 C 53.125 188.59375 52.769531 188.863281 52.402344 189.019531 C 52.03125 189.175781 51.652344 189.242188 51.265625 189.207031 C 50.878906 189.175781 50.488281 189.070312 50.097656 188.890625 C 49.703125 188.707031 49.3125 188.46875 48.925781 188.179688 C 48.507812 187.867188 48.160156 187.625 47.882812 187.460938 C 47.601562 187.296875 47.375 187.207031 47.199219 187.191406 C 47.019531 187.179688 46.871094 187.242188 46.753906 187.375 L 46.738281 187.394531 C 46.578125 187.578125 46.523438 187.777344 46.578125 188 C 46.632812 188.21875 46.773438 188.425781 46.992188 188.617188 C 47.230469 188.828125 47.476562 188.945312 47.722656 188.972656 C 47.960938 189 48.191406 188.917969 48.410156 188.730469 L 50.734375 190.761719 C 50.328125 191.164062 49.847656 191.4375 49.292969 191.585938 C 48.730469 191.734375 48.121094 191.710938 47.46875 191.519531 C 46.808594 191.332031 46.128906 190.929688 45.433594 190.320312 C 44.929688 189.878906 44.53125 189.425781 44.234375 188.957031 C 43.9375 188.492188 43.742188 188.03125 43.644531 187.574219 C 43.546875 187.125 43.546875 186.691406 43.644531 186.285156 C 43.738281 185.878906 43.929688 185.511719 44.214844 185.183594 L 48.429688 180.378906 L 50.789062 182.445312 L 49.921875 183.433594 L 49.976562 183.480469 C 50.347656 183.339844 50.703125 183.28125 51.046875 183.292969 C 51.386719 183.304688 51.714844 183.386719 52.035156 183.539062 C 52.351562 183.6875 52.664062 183.894531 52.96875 184.160156 Z M 50.753906 185.03125 C 50.558594 184.863281 50.34375 184.742188 50.109375 184.675781 C 49.867188 184.605469 49.628906 184.597656 49.390625 184.65625 C 49.15625 184.710938 48.941406 184.84375 48.753906 185.058594 L 48.242188 185.640625 C 48.332031 185.671875 48.429688 185.710938 48.527344 185.753906 C 48.621094 185.792969 48.71875 185.839844 48.824219 185.894531 C 48.925781 185.941406 49.03125 186 49.140625 186.066406 C 49.246094 186.128906 49.359375 186.195312 49.472656 186.269531 C 49.695312 186.40625 49.898438 186.496094 50.085938 186.535156 C 50.265625 186.578125 50.429688 186.574219 50.578125 186.527344 C 50.722656 186.480469 50.847656 186.394531 50.953125 186.273438 C 51.125 186.078125 51.1875 185.871094 51.140625 185.644531 C 51.09375 185.421875 50.964844 185.214844 50.753906 185.03125 Z M 50.753906 185.03125 "
          fill-opacity="1" fill-rule="nonzero"/>
    <path fill="#000000"
          d="M 31.460938 180.128906 L 40.96875 172.105469 L 43.136719 174.664062 L 33.625 182.691406 Z M 31.460938 180.128906 "
          fill-opacity="1" fill-rule="nonzero"/>
    <path fill="#000000"
          d="M 95.648438 73.539062 L 95.648438 106.703125 L 88.128906 106.703125 L 76.132812 89.277344 L 75.9375 89.277344 L 75.9375 106.703125 L 66.925781 106.703125 L 66.925781 73.539062 L 74.578125 73.539062 L 86.378906 90.898438 L 86.636719 90.898438 L 86.636719 73.539062 Z M 129.789062 90.121094 C 129.789062 93.8125 129.070312 96.925781 127.632812 99.464844 C 126.195312 101.988281 124.257812 103.90625 121.816406 105.210938 C 119.371094 106.507812 116.648438 107.15625 113.644531 107.15625 C 110.621094 107.15625 107.886719 106.503906 105.441406 105.195312 C 103.011719 103.878906 101.078125 101.957031 99.640625 99.429688 C 98.214844 96.894531 97.5 93.792969 97.5 90.121094 C 97.5 86.429688 98.214844 83.320312 99.640625 80.792969 C 101.078125 78.257812 103.011719 76.339844 105.441406 75.046875 C 107.886719 73.738281 110.621094 73.085938 113.644531 73.085938 C 116.648438 73.085938 119.371094 73.738281 121.816406 75.046875 C 124.257812 76.339844 126.195312 78.257812 127.632812 80.792969 C 129.070312 83.320312 129.789062 86.429688 129.789062 90.121094 Z M 120.519531 90.121094 C 120.519531 88.132812 120.253906 86.460938 119.722656 85.101562 C 119.203125 83.730469 118.433594 82.695312 117.40625 81.992188 C 116.390625 81.28125 115.136719 80.925781 113.644531 80.925781 C 112.152344 80.925781 110.894531 81.28125 109.867188 81.992188 C 108.851562 82.695312 108.078125 83.730469 107.550781 85.101562 C 107.03125 86.460938 106.773438 88.132812 106.773438 90.121094 C 106.773438 92.105469 107.03125 93.785156 107.550781 95.15625 C 108.078125 96.515625 108.851562 97.554688 109.867188 98.265625 C 110.894531 98.96875 112.152344 99.316406 113.644531 99.316406 C 115.136719 99.316406 116.390625 98.96875 117.40625 98.265625 C 118.433594 97.554688 119.203125 96.515625 119.722656 95.15625 C 120.253906 93.785156 120.519531 92.105469 120.519531 90.121094 Z M 138.660156 73.539062 L 145.46875 96.921875 L 145.726562 96.921875 L 152.535156 73.539062 L 162.714844 73.539062 L 151.757812 106.703125 L 139.4375 106.703125 L 128.480469 73.539062 Z M 66.992188 150.019531 L 66.992188 143.542969 L 79.375 133.308594 C 80.195312 132.628906 80.898438 131.992188 81.480469 131.398438 C 82.078125 130.792969 82.53125 130.171875 82.84375 129.535156 C 83.167969 128.898438 83.332031 128.191406 83.332031 127.414062 C 83.332031 126.5625 83.148438 125.832031 82.777344 125.230469 C 82.421875 124.625 81.925781 124.160156 81.289062 123.835938 C 80.648438 123.5 79.914062 123.335938 79.082031 123.335938 C 78.25 123.335938 77.515625 123.5 76.878906 123.835938 C 76.253906 124.171875 75.765625 124.660156 75.417969 125.308594 C 75.074219 125.957031 74.902344 126.746094 74.902344 127.671875 L 66.34375 127.671875 C 66.34375 125.34375 66.867188 123.335938 67.914062 121.648438 C 68.964844 119.964844 70.445312 118.671875 72.355469 117.765625 C 74.269531 116.855469 76.511719 116.402344 79.082031 116.402344 C 81.742188 116.402344 84.042969 116.832031 85.988281 117.683594 C 87.945312 118.523438 89.453125 119.710938 90.511719 121.246094 C 91.582031 122.777344 92.117188 124.574219 92.117188 126.636719 C 92.117188 127.910156 91.851562 129.179688 91.320312 130.441406 C 90.792969 131.695312 89.839844 133.082031 88.46875 134.605469 C 87.097656 136.125 85.144531 137.9375 82.617188 140.042969 L 79.503906 142.636719 L 79.503906 142.828125 L 92.472656 142.828125 L 92.472656 150.019531 Z M 95.710938 150.019531 L 108.742188 124.242188 L 108.742188 124.046875 L 93.441406 124.046875 L 93.441406 116.855469 L 118.078125 116.855469 L 118.078125 124.046875 L 104.980469 150.019531 Z M 95.710938 150.019531 "
          fill-opacity="1" fill-rule="nonzero"/>
    <path fill="#000000"
          d="M 120.992188 122.195312 L 120.992188 117.117188 L 141.191406 117.117188 L 141.191406 122.195312 L 134.203125 122.195312 L 134.203125 140.328125 L 127.984375 140.328125 L 127.984375 122.195312 Z M 141.96875 140.328125 L 141.96875 117.117188 L 148.277344 117.117188 L 148.277344 126.183594 L 156.628906 126.183594 L 156.628906 117.117188 L 162.9375 117.117188 L 162.9375 140.328125 L 156.628906 140.328125 L 156.628906 131.261719 L 148.277344 131.261719 L 148.277344 140.328125 Z M 141.96875 140.328125 "
          fill-opacity="1" fill-rule="nonzero"/>
    <path fill="#000000"
          d="M 120.703125 144.890625 L 164.636719 144.890625 L 164.636719 150.019531 L 120.703125 150.019531 Z M 120.703125 144.890625 "
          fill-opacity="1" fill-rule="nonzero"/>
</svg>