<svg width="515" height="555" viewBox="0 0 515 555" fill="none" xmlns="http://www.w3.org/2000/svg">
<path d="M130.944 367.392C132.784 370.381 131.893 374.312 128.853 376.184C125.813 378.056 121.902 377.082 120.062 374.093C118.221 371.104 119.164 367.142 122.152 365.301C125.167 363.445 129.104 364.403 130.944 367.392ZM129.871 368.053C128.361 365.6 125.189 364.911 122.813 366.374C120.386 367.869 119.625 370.98 121.135 373.432C122.597 375.808 125.74 376.621 128.193 375.111C130.645 373.601 131.334 370.428 129.871 368.053Z" fill="black"/>
<path d="M117.424 327.619L97.9078 339.305L96.2562 332.909L108.507 326.665L108.465 326.5L94.5833 326.432L93.2833 321.398L105.437 314.606L105.394 314.441L91.6104 314.92L89.9588 308.525L112.693 309.3L114.11 314.787L103.237 321.424L103.279 321.589L116.007 322.131L117.424 327.619Z" fill="black"/>
<path d="M111.126 294.474C111.306 296.212 111.129 297.744 110.595 299.071C110.053 300.39 109.192 301.454 108.012 302.262C106.824 303.063 105.354 303.554 103.602 303.736C101.921 303.91 100.416 303.723 99.0886 303.175C97.7609 302.627 96.6834 301.771 95.8561 300.607C95.0287 299.443 94.528 298.02 94.354 296.339C94.2268 295.11 94.3024 293.977 94.5808 292.942C94.8592 291.906 95.3256 290.997 95.9802 290.216C96.6276 289.435 97.4473 288.8 98.4393 288.312C99.4312 287.823 100.574 287.512 101.866 287.379L103.223 287.238L104.728 301.777L101.506 302.11L100.559 292.955C100.093 293.01 99.6957 293.173 99.3666 293.442C99.0297 293.706 98.7824 294.042 98.6248 294.451C98.4595 294.854 98.402 295.299 98.4524 295.786C98.5014 296.259 98.6488 296.683 98.8946 297.058C99.1334 297.433 99.4418 297.722 99.8199 297.926C100.197 298.122 100.623 298.203 101.098 298.168L104.574 297.809C105.097 297.755 105.552 297.597 105.939 297.335C106.326 297.074 106.615 296.726 106.805 296.293C106.996 295.859 107.061 295.352 107.001 294.773C106.96 294.37 106.865 294.009 106.718 293.688C106.57 293.361 106.377 293.088 106.14 292.87C105.897 292.652 105.617 292.503 105.301 292.421L104.749 287.08C105.898 287.147 106.925 287.48 107.83 288.079C108.727 288.679 109.464 289.52 110.04 290.603C110.608 291.679 110.97 292.97 111.126 294.474Z" fill="black"/>
<path d="M110.291 271.205C110.236 272.368 109.882 273.426 109.226 274.376C108.571 275.32 107.608 276.057 106.339 276.588C105.071 277.112 103.493 277.33 101.606 277.243C99.6335 277.151 98.0443 276.771 96.8382 276.104C95.6325 275.429 94.7649 274.592 94.2354 273.594C93.7063 272.588 93.4668 271.546 93.5169 270.468C93.5545 269.659 93.7294 268.956 94.0416 268.359C94.3466 267.762 94.7429 267.268 95.2302 266.878C95.7105 266.488 96.2323 266.2 96.7956 266.013L96.7995 265.928L88.4989 265.542L88.772 259.667L110.567 260.681L110.295 266.513L107.614 266.388L107.608 266.516C108.151 266.768 108.632 267.118 109.052 267.564C109.465 268.003 109.786 268.529 110.013 269.144C110.234 269.752 110.326 270.439 110.291 271.205ZM105.879 268.824C105.904 268.285 105.77 267.817 105.475 267.419C105.174 267.014 104.741 266.695 104.176 266.463C103.604 266.223 102.921 266.084 102.126 266.047C101.318 266.01 100.621 266.084 100.036 266.27C99.4451 266.449 98.9878 266.726 98.6646 267.102C98.3346 267.471 98.1571 267.925 98.132 268.464C98.107 269.003 98.2416 269.471 98.5359 269.869C98.8235 270.259 99.2534 270.571 99.8256 270.804C100.391 271.029 101.078 271.16 101.887 271.198C102.696 271.236 103.396 271.169 103.987 270.997C104.571 270.818 105.028 270.548 105.357 270.186C105.68 269.817 105.854 269.363 105.879 268.824Z" fill="black"/>
<path d="M117.323 227.952L113.314 226.508L109.737 216.569C109.499 215.91 109.261 215.334 109.024 214.84C108.782 214.338 108.499 213.919 108.174 213.583C107.852 213.241 107.451 212.983 106.97 212.81C106.442 212.62 105.95 212.571 105.494 212.663C105.04 212.749 104.642 212.953 104.3 213.275C103.95 213.595 103.683 214.012 103.498 214.526C103.313 215.041 103.253 215.532 103.318 216.001C103.385 216.463 103.581 216.874 103.905 217.232C104.229 217.59 104.678 217.873 105.253 218.08L103.347 223.372C101.904 222.852 100.777 222.08 99.9684 221.057C99.1595 220.033 98.6873 218.829 98.5519 217.444C98.4166 216.059 98.6352 214.572 99.208 212.981C99.8 211.338 100.576 210.009 101.538 208.997C102.494 207.975 103.565 207.307 104.75 206.994C105.937 206.674 107.169 206.744 108.445 207.204C109.233 207.488 109.96 207.934 110.623 208.543C111.281 209.15 111.928 210.047 112.564 211.235C113.201 212.423 113.889 214.033 114.629 216.066L115.539 218.568L115.66 218.612L118.547 210.593L122.998 212.196L117.323 227.952Z" fill="black"/>
<path d="M127.218 203.387L116.366 187.79L116.254 187.729L111.474 196.578L107.312 194.33L115.008 180.082L119.17 182.33L130.114 198.025L127.218 203.387Z" fill="black"/>
<path d="M134.013 162.566L137.419 165.127L130.938 173.743L127.532 171.182L134.013 162.566ZM125.654 167.157L129.189 162.457L141.194 171.486C141.376 171.623 141.552 171.707 141.724 171.738C141.89 171.765 142.054 171.737 142.214 171.654C142.369 171.566 142.524 171.42 142.677 171.215C142.784 171.073 142.891 170.896 142.998 170.683C143.109 170.464 143.187 170.301 143.233 170.193L147.048 171.997C146.953 172.254 146.803 172.612 146.6 173.072C146.4 173.527 146.114 174.031 145.741 174.586C144.987 175.707 144.195 176.529 143.366 177.052C142.532 177.571 141.672 177.786 140.787 177.699C139.902 177.611 139.007 177.217 138.102 176.519L125.654 167.157Z" fill="black"/>
<path d="M151.818 153.499L158.267 160.066L154.072 164.186L138.784 148.619L142.828 144.648L148.83 150.76L148.951 150.64C148.483 149.636 148.352 148.626 148.557 147.608C148.757 146.585 149.288 145.651 150.149 144.805C150.975 143.994 151.876 143.477 152.853 143.255C153.834 143.028 154.815 143.08 155.797 143.41C156.783 143.735 157.692 144.326 158.523 145.182L165.838 152.631L161.642 156.752L155.193 150.184C154.631 149.602 154.041 149.29 153.424 149.249C152.811 149.204 152.237 149.444 151.699 149.972C151.36 150.305 151.136 150.675 151.026 151.081C150.917 151.477 150.929 151.883 151.061 152.302C151.192 152.71 151.445 153.109 151.818 153.499Z" fill="black"/>
<path d="M199.332 105.157L209.352 124.538L204.961 126.808L192.694 120.246L192.58 120.304L197.844 130.487L192.582 133.207L182.563 113.826L187.03 111.517L199.164 118.1L199.315 118.022L194.071 107.877L199.332 105.157Z" fill="black"/>
<path d="M223.275 119.771C221.594 120.342 220.042 120.498 218.619 120.239C217.193 119.973 215.958 119.35 214.912 118.37C213.864 117.384 213.071 116.097 212.531 114.51C211.992 112.923 211.839 111.422 212.071 110.008C212.301 108.587 212.901 107.341 213.872 106.268C214.84 105.189 216.165 104.364 217.846 103.793C219.528 103.221 221.081 103.069 222.506 103.334C223.93 103.594 225.165 104.216 226.213 105.203C227.258 106.183 228.051 107.466 228.59 109.054C229.129 110.641 229.284 112.144 229.054 113.565C228.822 114.979 228.222 116.226 227.253 117.305C226.282 118.378 224.956 119.199 223.275 119.771ZM221.917 115.641C222.388 115.481 222.741 115.185 222.977 114.753C223.212 114.32 223.325 113.779 223.314 113.13C223.304 112.481 223.161 111.753 222.887 110.946C222.611 110.132 222.28 109.468 221.895 108.954C221.508 108.433 221.09 108.073 220.639 107.873C220.189 107.674 219.728 107.654 219.258 107.814C218.76 107.983 218.387 108.286 218.138 108.723C217.889 109.16 217.769 109.703 217.78 110.352C217.788 110.995 217.93 111.723 218.207 112.536C218.481 113.343 218.812 114.007 219.199 114.528C219.586 115.05 220.011 115.408 220.475 115.603C220.939 115.797 221.42 115.81 221.917 115.641Z" fill="black"/>
<path d="M254.015 95.4228L251.501 112.501L244.79 113.708L236.484 98.5755L242.565 97.4819L247.081 107.667L247.249 107.637L247.933 96.5165L254.015 95.4228Z" fill="black"/>
<path d="M272.362 110.974C270.616 111.024 269.101 110.733 267.819 110.101C266.543 109.463 265.547 108.524 264.829 107.287C264.119 106.043 263.739 104.54 263.689 102.779C263.641 101.09 263.94 99.6034 264.586 98.3203C265.232 97.0373 266.166 96.0268 267.388 95.2887C268.611 94.5507 270.067 94.1577 271.757 94.1099C272.992 94.0748 274.115 94.2348 275.127 94.5898C276.139 94.9449 277.01 95.4779 277.741 96.189C278.472 96.8931 279.043 97.7579 279.456 98.7835C279.869 99.8092 280.093 100.972 280.13 102.271L280.169 103.634L265.558 104.048L265.467 100.811L274.667 100.55C274.647 100.082 274.515 99.6732 274.27 99.3248C274.033 98.9692 273.716 98.6975 273.32 98.5098C272.931 98.3148 272.491 98.2242 272.001 98.2381C271.526 98.2516 271.092 98.3669 270.7 98.584C270.308 98.7941 269.997 99.08 269.765 99.4418C269.541 99.8034 269.429 100.222 269.428 100.698L269.527 104.191C269.542 104.717 269.665 105.182 269.897 105.588C270.129 105.993 270.454 106.307 270.872 106.53C271.291 106.752 271.791 106.855 272.373 106.839C272.778 106.828 273.145 106.76 273.476 106.637C273.813 106.514 274.1 106.342 274.335 106.123C274.57 105.896 274.74 105.628 274.845 105.319L280.212 105.167C280.06 106.309 279.651 107.308 278.986 108.165C278.321 109.015 277.427 109.687 276.304 110.181C275.189 110.667 273.874 110.932 272.362 110.974Z" fill="black"/>
<path d="M285.369 110.415L287.349 94.1718L292.89 94.8472L292.514 97.9351L292.683 97.9557C293.145 96.9818 293.821 96.2485 294.711 95.7559C295.601 95.2634 296.61 95.0859 297.738 95.2233C298.88 95.3625 299.827 95.7855 300.578 96.4924C301.33 97.1921 301.73 98.0494 301.778 99.0641L301.947 99.0847C302.343 98.1241 303.025 97.3988 303.994 96.9086C304.963 96.4114 306.05 96.2363 307.256 96.3832C308.814 96.5731 310.015 97.2275 310.859 98.3463C311.71 99.466 312.034 100.858 311.831 102.522L310.496 113.477L304.658 112.766L305.813 103.291C305.9 102.579 305.788 102 305.477 101.554C305.168 101.101 304.71 100.838 304.103 100.764C303.504 100.691 303.003 100.838 302.601 101.204C302.206 101.563 301.966 102.099 301.879 102.811L300.724 112.287L295.141 111.606L296.295 102.131C296.382 101.419 296.27 100.84 295.96 100.394C295.65 99.9414 295.192 99.6781 294.586 99.6042C294.184 99.5553 293.827 99.6048 293.516 99.7529C293.204 99.901 292.947 100.138 292.742 100.464C292.546 100.783 292.419 101.179 292.361 101.651L291.207 111.127L285.369 110.415Z" fill="black"/>
<path d="M314.376 114.713L320.214 93.6902L325.88 95.2637L323.657 103.27L323.739 103.293C324.092 102.816 324.529 102.411 325.05 102.076C325.572 101.735 326.165 101.512 326.827 101.409C327.492 101.298 328.214 101.352 328.994 101.568C330.034 101.857 330.946 102.409 331.73 103.224C332.52 104.04 333.045 105.125 333.302 106.48C333.567 107.836 333.435 109.465 332.907 111.367C332.402 113.188 331.699 114.618 330.798 115.658C329.904 116.699 328.903 117.383 327.796 117.71C326.695 118.038 325.583 118.046 324.461 117.734C323.722 117.529 323.095 117.226 322.579 116.825C322.073 116.419 321.672 115.95 321.378 115.419C321.092 114.882 320.913 114.317 320.843 113.722L320.72 113.688L320.001 116.275L314.376 114.713ZM322.108 108.369C321.895 109.135 321.81 109.826 321.853 110.443C321.904 111.054 322.072 111.565 322.356 111.976C322.649 112.381 323.055 112.656 323.575 112.801C324.095 112.945 324.578 112.92 325.022 112.727C325.475 112.528 325.875 112.179 326.22 111.678C326.574 111.172 326.86 110.528 327.077 109.748C327.293 108.968 327.379 108.273 327.335 107.664C327.299 107.05 327.137 106.544 326.849 106.147C326.57 105.745 326.171 105.472 325.651 105.328C325.13 105.183 324.64 105.209 324.18 105.406C323.729 105.598 323.323 105.945 322.962 106.45C322.609 106.949 322.325 107.588 322.108 108.369Z" fill="black"/>
<path d="M345.074 125.51C343.479 124.797 342.241 123.878 341.359 122.752C340.487 121.623 339.996 120.345 339.887 118.92C339.787 117.49 340.097 115.971 340.816 114.363C341.506 112.82 342.42 111.611 343.558 110.735C344.697 109.859 345.977 109.354 347.398 109.22C348.82 109.085 350.303 109.363 351.846 110.053C352.974 110.557 353.917 111.189 354.674 111.948C355.432 112.707 355.986 113.565 356.335 114.523C356.688 115.474 356.828 116.501 356.755 117.604C356.682 118.707 356.38 119.852 355.849 121.039L355.293 122.284L341.949 116.317L343.271 113.361L351.674 117.118C351.859 116.687 351.917 116.262 351.848 115.842C351.788 115.419 351.621 115.036 351.345 114.695C351.079 114.351 350.722 114.078 350.275 113.878C349.841 113.684 349.4 113.6 348.953 113.626C348.508 113.645 348.104 113.767 347.738 113.993C347.379 114.221 347.096 114.55 346.889 114.978L345.463 118.168C345.248 118.648 345.157 119.121 345.19 119.587C345.223 120.053 345.38 120.477 345.66 120.859C345.94 121.241 346.346 121.551 346.878 121.789C347.248 121.954 347.608 122.053 347.959 122.085C348.317 122.121 348.649 122.091 348.957 121.995C349.267 121.892 349.536 121.725 349.765 121.492L354.666 123.684C354.034 124.646 353.232 125.369 352.261 125.853C351.293 126.33 350.196 126.548 348.97 126.505C347.754 126.459 346.455 126.128 345.074 125.51Z" fill="black"/>
<path d="M362.737 134.305L371.568 120.529L376.375 123.611L374.697 126.229L374.84 126.321C375.712 125.514 376.564 125.06 377.395 124.961C378.233 124.865 379.02 125.053 379.755 125.524C379.97 125.662 380.171 125.816 380.357 125.986C380.553 126.154 380.731 126.331 380.89 126.517L378.182 130.742C377.99 130.501 377.729 130.244 377.397 129.972C377.065 129.701 376.77 129.482 376.513 129.318C376.029 129.007 375.521 128.838 374.991 128.81C374.47 128.78 373.973 128.891 373.499 129.144C373.028 129.391 372.625 129.777 372.287 130.304L367.688 137.478L362.737 134.305Z" fill="black"/>
<path d="M407.784 166.916C405.518 164.235 405.814 160.215 408.541 157.911C411.268 155.607 415.28 155.987 417.546 158.668C419.811 161.349 419.47 165.408 416.789 167.673C414.085 169.958 410.049 169.597 407.784 166.916ZM408.746 166.103C410.605 168.303 413.844 168.511 415.976 166.71C418.153 164.871 418.442 161.681 416.583 159.481C414.783 157.35 411.554 157.015 409.354 158.873C407.154 160.732 406.945 163.972 408.746 166.103Z" fill="black"/>
<path d="M452.321 207.821L432.245 216.364L429.925 210.913L444.982 204.506L444.932 204.388L440.436 201.115L445.063 199.146L450.185 202.802L452.321 207.821Z" fill="black"/>
<path d="M438.404 236.668C437.964 234.963 437.835 233.371 438.018 231.894C438.203 230.423 438.65 229.185 439.359 228.18C440.07 227.183 440.996 226.537 442.137 226.242C443.01 226.016 443.864 226.027 444.698 226.274C445.534 226.527 446.285 226.964 446.951 227.584C447.624 228.203 448.148 228.951 448.521 229.83L448.686 229.788C448.582 228.531 448.859 227.403 449.518 226.404C450.186 225.41 451.107 224.761 452.283 224.458C453.39 224.172 454.464 224.269 455.505 224.748C456.553 225.226 457.481 226.009 458.291 227.098C459.1 228.188 459.706 229.509 460.107 231.064C460.508 232.618 460.615 234.068 460.427 235.415C460.247 236.76 459.814 237.895 459.128 238.82C458.45 239.744 457.56 240.347 456.46 240.632C455.277 240.937 454.155 240.809 453.093 240.247C452.031 239.685 451.244 238.839 450.732 237.71L450.567 237.752C450.664 238.696 450.568 239.601 450.278 240.468C449.996 241.333 449.55 242.079 448.942 242.705C448.333 243.332 447.592 243.758 446.719 243.983C445.577 244.278 444.453 244.158 443.347 243.622C442.242 243.093 441.252 242.227 440.376 241.022C439.502 239.825 438.845 238.374 438.404 236.668ZM442.365 235.645C442.505 236.189 442.74 236.642 443.068 237.004C443.396 237.367 443.784 237.619 444.232 237.76C444.687 237.906 445.16 237.916 445.648 237.79C446.136 237.664 446.537 237.429 446.852 237.083C447.168 236.745 447.378 236.339 447.483 235.864C447.595 235.388 447.58 234.878 447.44 234.335C447.302 233.798 447.067 233.345 446.737 232.976C446.416 232.611 446.034 232.354 445.592 232.204C445.151 232.061 444.687 232.053 444.199 232.179C443.71 232.305 443.305 232.538 442.982 232.878C442.661 233.225 442.441 233.638 442.322 234.116C442.212 234.599 442.227 235.109 442.365 235.645ZM451.401 233.312C451.525 233.793 451.735 234.194 452.03 234.514C452.326 234.833 452.676 235.055 453.082 235.177C453.488 235.3 453.911 235.304 454.351 235.191C454.791 235.077 455.152 234.87 455.434 234.57C455.723 234.268 455.915 233.906 456.012 233.485C456.116 233.063 456.105 232.61 455.981 232.129C455.858 231.655 455.649 231.254 455.351 230.927C455.063 230.606 454.719 230.383 454.32 230.258C453.928 230.132 453.512 230.126 453.072 230.24C452.632 230.353 452.264 230.562 451.969 230.866C451.68 231.168 451.48 231.531 451.37 231.956C451.268 232.385 451.278 232.837 451.401 233.312Z" fill="black"/>
<path d="M442.647 261.205C442.563 260.386 442.776 259.653 443.287 259.008C443.807 258.368 444.48 258.009 445.307 257.931C446.112 257.841 446.83 258.055 447.463 258.575C448.096 259.103 448.454 259.776 448.539 260.595C448.62 261.372 448.404 262.087 447.894 262.74C447.384 263.4 446.726 263.775 445.922 263.865C445.37 263.915 444.853 263.822 444.372 263.586C443.898 263.357 443.504 263.034 443.19 262.616C442.882 262.198 442.701 261.728 442.647 261.205ZM453.583 260.073C453.498 259.254 453.712 258.521 454.223 257.876C454.743 257.236 455.416 256.878 456.243 256.799C457.048 256.709 457.766 256.924 458.399 257.444C459.031 257.971 459.39 258.644 459.475 259.464C459.556 260.241 459.34 260.955 458.83 261.608C458.319 262.268 457.662 262.643 456.857 262.733C456.306 262.783 455.789 262.69 455.308 262.455C454.834 262.225 454.44 261.902 454.126 261.484C453.818 261.066 453.637 260.596 453.583 260.073Z" fill="black"/>
<path d="M442.973 286.077C443.073 284.098 443.61 282.409 444.585 281.011C445.56 279.613 446.92 278.564 448.666 277.863C450.413 277.162 452.481 276.871 454.871 276.989C457.269 277.108 459.287 277.593 460.925 278.444C462.564 279.302 463.786 280.468 464.592 281.942C465.397 283.423 465.754 285.153 465.662 287.132C465.57 289.111 465.051 290.801 464.104 292.2C463.164 293.6 461.839 294.651 460.128 295.353C458.418 296.056 456.367 296.348 453.977 296.23C451.572 296.118 449.532 295.632 447.859 294.772C446.185 293.912 444.928 292.741 444.087 291.259C443.252 289.784 442.881 288.056 442.973 286.077ZM447.784 286.301C447.736 287.322 448.229 288.184 449.263 288.886C450.304 289.596 451.97 290.001 454.262 290.1C455.759 290.17 456.989 290.078 457.954 289.824C458.919 289.57 459.64 289.191 460.119 288.687C460.604 288.184 460.863 287.591 460.894 286.91C460.942 285.889 460.463 285.031 459.457 284.337C458.451 283.643 456.828 283.237 454.586 283.119C453.061 283.041 451.799 283.128 450.799 283.38C449.806 283.632 449.063 284.01 448.571 284.514C448.078 285.024 447.815 285.62 447.784 286.301Z" fill="black"/>
<path d="M439.844 310.737C440.237 308.795 441.02 307.205 442.192 305.968C443.365 304.731 444.867 303.896 446.698 303.463C448.529 303.031 450.617 303.051 452.964 303.524C455.317 303.999 457.24 304.779 458.733 305.865C460.225 306.958 461.26 308.293 461.837 309.87C462.413 311.454 462.508 313.218 462.122 315.162C461.736 317.105 460.97 318.698 459.826 319.941C458.688 321.185 457.221 322.027 455.425 322.467C453.629 322.906 451.557 322.89 449.211 322.416C446.85 321.947 444.905 321.163 443.379 320.063C441.852 318.963 440.783 317.618 440.173 316.027C439.567 314.444 439.458 312.681 439.844 310.737ZM444.567 311.675C444.368 312.678 444.727 313.604 445.645 314.452C446.568 315.309 448.155 315.958 450.407 316.398C451.876 316.689 453.107 316.782 454.099 316.675C455.09 316.568 455.86 316.3 456.408 315.874C456.964 315.448 457.308 314.901 457.44 314.232C457.64 313.229 457.294 312.309 456.403 311.473C455.511 310.638 453.967 309.994 451.768 309.543C450.272 309.238 449.01 309.136 447.984 309.237C446.964 309.338 446.174 309.601 445.612 310.025C445.048 310.456 444.7 311.006 444.567 311.675Z" fill="black"/>
<path d="M427.667 358.975C429.335 355.887 433.185 354.693 436.326 356.39C439.467 358.087 440.579 361.961 438.911 365.049C437.243 368.137 433.34 369.303 430.252 367.634C427.137 365.952 425.999 362.064 427.667 358.975ZM428.775 359.574C427.407 362.108 428.396 365.2 430.851 366.526C433.358 367.88 436.434 366.984 437.803 364.45C439.129 361.996 438.261 358.867 435.727 357.499C433.193 356.13 430.101 357.119 428.775 359.574Z" fill="black"/>
<path d="M400.411 401.498L397.127 404.723L394.478 404.397L390.232 404.087L384.512 403.493L388.252 399.821L392.226 400.158L395.235 400.728L400.411 401.498ZM393.321 412.402C391.619 410.669 390.52 408.876 390.025 407.024C389.534 405.176 389.56 403.383 390.103 401.645C390.652 399.913 391.63 398.355 393.039 396.971C394.458 395.578 396.041 394.625 397.788 394.114C399.535 393.613 401.328 393.624 403.167 394.148C405.005 394.682 406.77 395.81 408.462 397.533C410.164 399.266 411.263 401.054 411.758 402.897C412.254 404.749 412.23 406.539 411.687 408.267C411.144 410.005 410.163 411.571 408.744 412.964C407.335 414.347 405.757 415.295 404.01 415.806C402.267 416.323 400.474 416.317 398.631 415.788C396.793 415.264 395.023 414.135 393.321 412.402ZM397.668 408.133C398.584 409.065 399.48 409.729 400.355 410.123C401.23 410.528 402.07 410.659 402.875 410.515C403.68 410.382 404.432 409.972 405.131 409.285C405.83 408.598 406.257 407.851 406.41 407.044C406.562 406.247 406.447 405.405 406.063 404.517C405.68 403.64 405.03 402.735 404.114 401.803C403.199 400.87 402.303 400.202 401.428 399.797C400.553 399.402 399.713 399.272 398.908 399.405C398.103 399.548 397.351 399.963 396.652 400.65C395.952 401.337 395.526 402.079 395.373 402.876C395.22 403.683 395.336 404.526 395.719 405.403C396.103 406.29 396.753 407.2 397.668 408.133Z" fill="black"/>
<path d="M377.056 419.901L382.454 427.356L377.691 430.805L368.094 417.551L372.615 414.277L374.44 416.797L374.578 416.697C374.253 415.643 374.277 414.617 374.651 413.619C375.028 412.626 375.712 411.772 376.701 411.055C377.627 410.385 378.593 410.01 379.597 409.932C380.595 409.858 381.558 410.055 382.485 410.524C383.406 410.997 384.22 411.714 384.925 412.677L391.048 421.133L386.285 424.582L380.887 417.127C380.406 416.475 379.867 416.081 379.268 415.944C378.664 415.812 378.062 415.962 377.464 416.396C377.067 416.683 376.785 417.014 376.618 417.389C376.45 417.774 376.401 418.179 376.47 418.602C376.538 419.035 376.733 419.468 377.056 419.901Z" fill="black"/>
<path d="M355.169 424.661C356.097 424.182 356.995 423.909 357.865 423.843C358.731 423.787 359.528 423.967 360.255 424.383C360.981 424.799 361.594 425.489 362.093 426.455C362.504 427.25 362.719 427.998 362.738 428.7C362.76 429.408 362.621 430.067 362.322 430.678C362.022 431.289 361.599 431.855 361.053 432.377C360.501 432.902 359.864 433.387 359.143 433.832C358.362 434.316 357.748 434.729 357.302 435.072C356.852 435.424 356.559 435.739 356.423 436.018C356.29 436.302 356.296 436.583 356.439 436.861L356.459 436.899C356.655 437.277 356.95 437.492 357.344 437.544C357.739 437.596 358.163 437.505 358.618 437.27C359.116 437.012 359.466 436.691 359.667 436.307C359.865 435.933 359.88 435.506 359.712 435.025L364.519 432.54C364.913 433.456 365.053 434.415 364.939 435.417C364.823 436.429 364.398 437.408 363.664 438.355C362.933 439.308 361.846 440.158 360.401 440.905C359.36 441.443 358.363 441.803 357.409 441.984C356.459 442.172 355.581 442.198 354.775 442.063C353.973 441.934 353.27 441.657 352.667 441.233C352.061 440.819 351.584 440.274 351.235 439.599L346.088 429.644L350.971 427.119L352.028 429.163L352.142 429.105C352.152 428.412 352.278 427.791 352.522 427.241C352.759 426.695 353.103 426.209 353.555 425.783C354 425.361 354.539 424.987 355.169 424.661ZM355.169 428.835C354.771 429.04 354.441 429.315 354.179 429.658C353.911 430.005 353.746 430.39 353.685 430.813C353.624 431.237 353.707 431.669 353.936 432.111L354.562 433.322C354.671 433.194 354.792 433.063 354.924 432.931C355.049 432.803 355.189 432.67 355.342 432.535C355.49 432.403 355.652 432.267 355.828 432.128C355.997 431.992 356.178 431.855 356.37 431.716C356.741 431.444 357.019 431.169 357.202 430.89C357.383 430.621 357.482 430.349 357.501 430.076C357.516 429.812 357.459 429.554 357.329 429.301C357.12 428.898 356.818 428.662 356.423 428.594C356.028 428.526 355.61 428.607 355.169 428.835Z" fill="black"/>
<path d="M331.851 434.907C332.954 434.532 334.068 434.476 335.192 434.739C336.31 435.004 337.348 435.631 338.306 436.618C339.257 437.607 340.037 438.996 340.644 440.785C341.279 442.655 341.507 444.273 341.326 445.639C341.138 447.008 340.677 448.121 339.94 448.979C339.197 449.839 338.315 450.443 337.293 450.79C336.526 451.051 335.808 451.145 335.138 451.072C334.471 451.006 333.867 450.818 333.326 450.506C332.787 450.202 332.328 449.822 331.948 449.366L331.867 449.393L334.541 457.261L328.973 459.153L321.954 438.494L327.481 436.616L328.345 439.158L328.466 439.117C328.503 438.52 328.652 437.944 328.914 437.39C329.172 436.845 329.545 436.354 330.034 435.918C330.519 435.49 331.125 435.153 331.851 434.907ZM331.246 439.883C330.735 440.056 330.349 440.353 330.086 440.772C329.819 441.2 329.68 441.72 329.67 442.331C329.656 442.951 329.777 443.637 330.033 444.391C330.293 445.157 330.617 445.779 331.004 446.255C331.386 446.74 331.811 447.064 332.279 447.228C332.743 447.4 333.23 447.4 333.741 447.226C334.253 447.052 334.639 446.756 334.902 446.337C335.16 445.926 335.293 445.412 335.301 444.795C335.304 444.186 335.175 443.498 334.915 442.732C334.654 441.965 334.336 441.338 333.961 440.851C333.581 440.372 333.162 440.046 332.705 439.871C332.244 439.705 331.758 439.709 331.246 439.883Z" fill="black"/>
<path d="M271.747 458.293L277.753 458.123C277.81 458.619 277.936 459.066 278.132 459.466C278.321 459.866 278.579 460.206 278.907 460.488C279.228 460.778 279.614 460.994 280.066 461.138C280.518 461.288 281.028 461.356 281.596 461.339C282.59 461.311 283.424 461.046 284.099 460.544C284.767 460.042 285.265 459.335 285.595 458.423C285.917 457.512 286.06 456.424 286.025 455.16C285.987 453.826 285.778 452.713 285.397 451.821C285.01 450.937 284.469 450.277 283.774 449.842C283.08 449.414 282.254 449.214 281.295 449.241C280.749 449.256 280.261 449.338 279.832 449.485C279.403 449.639 279.032 449.852 278.72 450.124C278.408 450.395 278.158 450.719 277.969 451.094C277.774 451.476 277.648 451.902 277.59 452.373L271.583 452.5C271.628 451.575 271.86 450.627 272.28 449.656C272.7 448.692 273.311 447.794 274.111 446.961C274.905 446.136 275.899 445.461 277.092 444.937C278.285 444.413 279.68 444.128 281.277 444.083C283.279 444.026 285.088 444.405 286.702 445.219C288.31 446.033 289.598 447.261 290.569 448.903C291.532 450.546 292.048 452.574 292.116 454.988C292.185 457.416 291.774 459.474 290.884 461.161C289.994 462.856 288.766 464.152 287.2 465.049C285.634 465.953 283.872 466.433 281.912 466.489C280.535 466.528 279.262 466.376 278.094 466.032C276.926 465.689 275.896 465.167 275.002 464.468C274.108 463.775 273.38 462.912 272.818 461.876C272.256 460.84 271.899 459.646 271.747 458.293Z" fill="black"/>
<path d="M256.515 442.892C258.25 443.104 259.704 443.617 260.878 444.433C262.044 445.255 262.89 446.331 263.415 447.661C263.931 448.998 264.083 450.54 263.87 452.289C263.666 453.966 263.149 455.392 262.319 456.564C261.489 457.737 260.415 458.597 259.096 459.144C257.777 459.692 256.279 459.863 254.601 459.659C253.374 459.509 252.287 459.184 251.339 458.682C250.392 458.18 249.61 457.523 248.993 456.711C248.376 455.906 247.939 454.966 247.684 453.89C247.429 452.814 247.38 451.631 247.537 450.341L247.702 448.987L262.211 450.756L261.819 453.97L252.682 452.857C252.633 453.323 252.703 453.747 252.892 454.127C253.074 454.515 253.347 454.83 253.711 455.075C254.066 455.326 254.488 455.481 254.974 455.54C255.446 455.598 255.892 455.548 256.312 455.392C256.731 455.243 257.082 455.006 257.364 454.683C257.64 454.359 257.814 453.962 257.885 453.491L258.308 450.022C258.372 449.501 258.319 449.022 258.15 448.586C257.982 448.151 257.707 447.792 257.326 447.509C256.946 447.227 256.467 447.05 255.888 446.98C255.487 446.931 255.113 446.943 254.768 447.015C254.416 447.087 254.107 447.214 253.842 447.396C253.575 447.585 253.367 447.825 253.217 448.114L247.888 447.465C248.208 446.359 248.761 445.432 249.547 444.683C250.331 443.942 251.315 443.41 252.499 443.09C253.675 442.775 255.014 442.709 256.515 442.892Z" fill="black"/>
<path d="M231.993 447.844L234.456 438.976L240.122 440.549L235.744 456.316L230.365 454.822L231.197 451.825L231.033 451.779C230.413 452.683 229.593 453.3 228.573 453.628C227.547 453.955 226.455 453.958 225.298 453.637C224.183 453.327 223.286 452.801 222.607 452.06C221.92 451.324 221.474 450.448 221.269 449.433C221.058 448.416 221.114 447.337 221.438 446.196L224.232 436.136L229.898 437.71L227.435 446.579C227.212 447.357 227.24 448.025 227.52 448.582C227.794 449.137 228.286 449.513 228.998 449.711C229.463 449.84 229.899 449.85 230.305 449.742C230.702 449.638 231.046 449.424 231.335 449.099C231.622 448.781 231.842 448.363 231.993 447.844Z" fill="black"/>
<path d="M196.586 442.389L198.326 438.499L208.168 442.9L206.429 446.79L196.586 442.389ZM202.922 449.517L197.554 447.116L203.685 433.404C203.778 433.196 203.821 433.005 203.813 432.831C203.803 432.663 203.739 432.51 203.621 432.372C203.501 432.24 203.325 432.122 203.091 432.018C202.929 431.945 202.732 431.881 202.501 431.824C202.263 431.764 202.087 431.724 201.971 431.704L202.88 427.582C203.152 427.618 203.535 427.684 204.029 427.781C204.516 427.874 205.072 428.041 205.696 428.281C206.956 428.767 207.934 429.356 208.628 430.047C209.32 430.746 209.721 431.536 209.832 432.418C209.944 433.3 209.759 434.26 209.28 435.298L202.922 449.517Z" fill="black"/>
<path d="M191.015 420.749L182.184 434.525L177.377 431.444L179.055 428.825L178.912 428.733C178.04 429.54 177.188 429.994 176.356 430.094C175.519 430.189 174.732 430.002 173.997 429.53C173.782 429.392 173.581 429.238 173.395 429.068C173.199 428.9 173.021 428.723 172.862 428.537L175.57 424.313C175.762 424.554 176.023 424.81 176.355 425.082C176.687 425.354 176.982 425.572 177.239 425.737C177.723 426.047 178.23 426.216 178.761 426.244C179.282 426.274 179.779 426.163 180.253 425.91C180.724 425.663 181.127 425.277 181.465 424.751L186.064 417.576L191.015 420.749Z" fill="black"/>
<path d="M168.516 404.163C169.302 404.851 169.884 405.587 170.262 406.373C170.631 407.159 170.755 407.966 170.633 408.794C170.512 409.623 170.093 410.446 169.376 411.263C168.786 411.936 168.168 412.409 167.522 412.683C166.871 412.963 166.207 413.074 165.528 413.018C164.85 412.962 164.169 412.776 163.483 412.458C162.793 412.137 162.109 411.721 161.431 411.212C160.695 410.662 160.086 410.241 159.604 409.951C159.112 409.661 158.712 409.504 158.403 409.479C158.09 409.459 157.83 409.567 157.624 409.802L157.596 409.834C157.315 410.154 157.222 410.508 157.318 410.894C157.414 411.28 157.654 411.642 158.039 411.979C158.461 412.349 158.887 412.557 159.318 412.604C159.739 412.652 160.142 412.51 160.528 412.177L164.598 415.745C163.889 416.446 163.048 416.926 162.073 417.187C161.089 417.448 160.022 417.41 158.873 417.073C157.718 416.741 156.53 416.039 155.307 414.967C154.425 414.195 153.726 413.398 153.209 412.576C152.687 411.76 152.342 410.952 152.174 410.153C152.001 409.359 152.001 408.604 152.176 407.888C152.34 407.173 152.672 406.529 153.173 405.958L160.561 397.529L164.695 401.153L163.178 402.883L163.274 402.968C163.922 402.724 164.547 402.615 165.147 402.64C165.743 402.662 166.321 402.805 166.882 403.07C167.437 403.33 167.982 403.694 168.516 404.163ZM164.631 405.687C164.294 405.392 163.918 405.185 163.503 405.066C163.082 404.943 162.663 404.93 162.247 405.028C161.831 405.126 161.459 405.362 161.131 405.736L160.232 406.761C160.392 406.816 160.557 406.881 160.728 406.955C160.894 407.025 161.068 407.106 161.25 407.2C161.427 407.289 161.612 407.39 161.806 407.503C161.994 407.612 162.188 407.73 162.388 407.858C162.777 408.104 163.134 408.261 163.461 408.33C163.778 408.4 164.066 408.394 164.328 408.311C164.579 408.229 164.798 408.081 164.986 407.868C165.285 407.526 165.394 407.159 165.313 406.767C165.232 406.374 165.005 406.014 164.631 405.687Z" fill="black"/>
<path d="M130.82 397.09L147.486 383.009L151.281 387.501L134.615 401.582L130.82 397.09Z" fill="black"/>
<path d="M243.319 210.077V268.259H230.137L209.114 237.691H208.773V268.259H192.978V210.077H206.387L227.069 240.532H227.523V210.077H243.319ZM303.154 239.168C303.154 245.645 301.895 251.109 299.376 255.56C296.857 259.992 293.457 263.354 289.177 265.645C284.897 267.918 280.124 269.054 274.859 269.054C269.556 269.054 264.764 267.909 260.484 265.617C256.222 263.306 252.832 259.935 250.313 255.503C247.813 251.053 246.563 245.608 246.563 239.168C246.563 232.691 247.813 227.236 250.313 222.804C252.832 218.354 256.222 214.992 260.484 212.719C264.764 210.428 269.556 209.282 274.859 209.282C280.124 209.282 284.897 210.428 289.177 212.719C293.457 214.992 296.857 218.354 299.376 222.804C301.895 227.236 303.154 232.691 303.154 239.168ZM286.904 239.168C286.904 235.683 286.44 232.748 285.512 230.361C284.603 227.956 283.249 226.138 281.45 224.907C279.669 223.657 277.472 223.032 274.859 223.032C272.245 223.032 270.039 223.657 268.239 224.907C266.459 226.138 265.105 227.956 264.177 230.361C263.268 232.748 262.813 235.683 262.813 239.168C262.813 242.653 263.268 245.598 264.177 248.003C265.105 250.39 266.459 252.208 268.239 253.458C270.039 254.689 272.245 255.304 274.859 255.304C277.472 255.304 279.669 254.689 281.45 253.458C283.249 252.208 284.603 250.39 285.512 248.003C286.44 245.598 286.904 242.653 286.904 239.168ZM318.7 210.077L330.631 251.1H331.086L343.018 210.077H360.859L341.654 268.259H320.063L300.859 210.077H318.7ZM193.092 344.259V332.895L214.796 314.941C216.236 313.748 217.467 312.63 218.489 311.589C219.531 310.528 220.327 309.439 220.876 308.322C221.444 307.204 221.728 305.964 221.728 304.6C221.728 303.104 221.406 301.825 220.762 300.765C220.137 299.704 219.266 298.89 218.148 298.322C217.031 297.734 215.743 297.441 214.285 297.441C212.827 297.441 211.539 297.734 210.421 298.322C209.323 298.909 208.47 299.77 207.864 300.907C207.258 302.043 206.955 303.426 206.955 305.054H191.955C191.955 300.964 192.874 297.441 194.711 294.486C196.548 291.532 199.143 289.259 202.495 287.668C205.847 286.077 209.777 285.282 214.285 285.282C218.944 285.282 222.978 286.03 226.387 287.526C229.815 289.003 232.457 291.087 234.313 293.776C236.188 296.465 237.126 299.619 237.126 303.236C237.126 305.471 236.662 307.697 235.734 309.912C234.806 312.109 233.139 314.543 230.734 317.214C228.328 319.884 224.91 323.066 220.478 326.759L215.023 331.304V331.645H237.751V344.259H193.092ZM243.424 344.259L266.265 299.032V298.691H239.447V286.077H282.629V298.691L259.674 344.259H243.424Z" fill="black"/>
<path d="M287.739 295.441V286.532H323.137V295.441H310.887V327.259H299.989V295.441H287.739ZM324.498 327.259V286.532H335.555V302.441H350.192V286.532H361.248V327.259H350.192V311.35H335.555V327.259H324.498Z" fill="black"/>
<rect x="287.228" y="335.259" width="77" height="9" fill="black"/>
</svg>
